<svg width="51" height="58" viewBox="0 0 51 58" fill="none" xmlns="http://www.w3.org/2000/svg">
<path d="M0 32.573C1.72557 33.4688 3.36656 34.3207 5.03163 35.1853C8.98238 30.4171 14.0459 28.9876 20.0527 30.0967C19.8006 30.4741 19.5749 30.8058 19.355 31.1412C18.6699 32.185 17.8825 33.1774 17.322 34.2846C15.3252 38.2298 15.3395 42.2782 16.9353 46.3509C17.6057 48.0615 18.6309 49.5646 19.785 50.9834C19.8852 51.1064 19.9795 51.2345 20.1457 51.4502C19.5303 51.5497 18.9842 51.7068 18.4361 51.7133C16.9593 51.7315 15.4787 51.7374 14.0062 51.646C13.1325 51.5917 12.7952 51.0833 12.7881 50.1279C12.7672 47.396 12.7627 44.6637 12.7324 41.9317C12.724 41.1833 12.6749 40.4326 12.588 39.6893C12.5555 39.4099 12.3623 39.1494 12.2423 38.88C12.1684 38.8895 12.0946 38.8986 12.0204 38.908C11.9524 39.1123 11.8418 39.313 11.823 39.5218C11.6102 41.9034 11.4323 44.2887 11.1978 46.668C11.1129 47.5306 10.9841 48.4069 10.7252 49.2295C10.41 50.2311 10.0668 50.3169 9.11802 49.8681C7.69463 49.1947 6.58838 48.1513 5.66168 46.8993C5.55597 46.7565 5.45448 46.6108 5.31331 46.4137C5.15523 46.4875 5.00008 46.5568 4.8472 46.6313C3.4378 47.3195 2.02872 48.0088 0.619643 48.6977C0.0702588 48.9664 0.0445622 49.0493 0.370484 49.5841C1.57627 51.5621 3.30769 52.9829 5.2977 54.0849C10.7385 57.0979 16.4841 57.8678 22.5137 56.2756C23.2677 56.0765 23.995 55.759 24.7128 55.4458C25.1842 55.2402 25.6021 55.2067 26.0949 55.3954C27.9961 56.1237 29.9309 56.7645 31.9654 56.9821C39.4408 57.7826 45.7173 55.507 50.5755 49.6491C50.7186 49.4764 50.8309 49.2783 51 49.0298C49.2595 48.1535 47.5772 47.3065 45.8701 46.4472C45.2977 47.0463 44.7343 47.639 44.167 48.228C43.9813 48.4209 43.8164 48.6681 43.588 48.7768C43.2885 48.9192 42.9242 49.0425 42.6083 49.0038C42.2118 48.9557 42.083 48.5774 42.0514 48.1913C41.9191 46.5727 41.7724 44.9551 41.6491 43.3359C41.614 42.8737 41.5229 42.4831 41.0034 42.3582C40.4309 42.2203 40.0276 42.3614 39.8094 42.9778C39.5566 43.6911 39.408 44.4497 39.2905 45.2004C39.0895 46.4862 38.9939 47.7892 38.7708 49.0705C38.4627 50.8406 37.6951 51.5081 35.9194 51.7032C34.3129 51.8799 32.7178 51.8812 31.0804 51.4131C31.4974 50.7996 31.9056 50.2245 32.2874 49.6326C33.6936 47.4526 34.7455 45.1288 35.1066 42.5332C35.5324 39.4717 34.9443 36.5905 33.4396 33.9161C32.7171 32.6319 31.8395 31.4352 31.0452 30.2194C35.2494 29.0149 42.1461 29.8059 45.8542 35.2575C47.45 34.4459 49.0532 33.6389 50.6415 32.8033C50.7518 32.7454 50.8442 32.4273 50.7853 32.3122C50.5095 31.7738 50.2213 31.2306 49.8563 30.7509C49.1551 29.829 48.8753 28.7911 48.8165 27.6605C48.7729 26.8229 48.7202 25.9837 48.6132 25.1526C48.5686 24.8081 48.3718 24.4832 48.23 24.113C47.7164 24.3863 47.572 24.7519 47.5238 25.1695C47.4458 25.8428 47.3791 26.5174 47.3056 27.1911C47.2922 27.3147 47.3075 27.4643 47.2434 27.5551C47.1111 27.7424 46.9338 27.8982 46.775 28.067C46.6075 27.8875 46.3135 27.7216 46.2927 27.5264C46.1525 26.2159 45.9983 24.8999 45.9824 23.5841C45.9293 19.1569 45.9632 14.7283 45.888 10.3014C45.8734 9.43223 45.5296 8.56701 45.3185 7.70471C45.2752 7.52841 45.1461 7.37326 45.0566 7.20834L44.8927 7.19566C44.7375 7.63803 44.5551 8.07324 44.4324 8.52439C43.9618 10.2561 44.1078 12.0341 44.074 13.797C44.0057 17.3493 43.9696 20.9026 43.8713 24.4542C43.8603 24.8521 43.588 25.2804 43.3386 25.6233C43.0617 26.0042 42.6262 26.0393 42.1738 25.8809C40.9855 25.4645 40.2494 24.3941 40.2579 23.0774C40.2901 18.0594 40.3584 13.0414 40.3343 8.0238C40.3233 5.7238 40.1379 3.42446 40.0097 1.12609C39.9889 0.752678 39.8526 0.386096 39.7697 0.0162626C39.6897 0.0107329 39.6096 0.00520331 39.5296 -1.03257e-06C39.4444 0.318115 39.2977 0.633628 39.2834 0.954996C39.1588 3.75363 39.0333 6.55227 38.9562 9.35253C38.8599 12.8502 38.8235 16.3498 38.7317 19.8474C38.6986 21.1144 38.3632 22.3133 37.6544 23.3848C36.6786 24.8602 35.277 24.8257 34.3425 23.3158C33.7889 22.421 33.8071 21.4058 33.7147 20.4176C33.5885 19.0671 33.5144 17.7117 33.3856 16.3612C33.3524 16.0141 33.2408 15.6583 33.085 15.3463C33.0008 15.1778 32.748 15.0025 32.5695 15.0009C32.428 14.9996 32.1892 15.2387 32.1564 15.4036C31.9651 16.3625 31.7439 17.3256 31.6792 18.2972C31.5569 20.1314 31.5263 21.9718 31.4749 23.8102C31.4616 24.288 31.242 24.5762 30.8159 24.7418C30.2678 24.9548 29.7041 25.0778 29.1713 24.7587C29.0396 24.6797 28.9931 24.3882 28.9814 24.1901C28.9033 22.8738 28.8662 21.5545 28.7683 20.2397C28.7387 19.8406 28.5797 19.4454 28.4434 19.0616C28.3077 18.6797 28.0114 18.5109 27.6006 18.559C27.2103 18.6046 26.9735 18.8284 26.9273 19.2073C26.7852 20.3753 26.6515 21.5444 26.536 22.7153C26.4729 23.3542 26.4921 24.0031 26.4013 24.637C26.3395 25.0693 26.1704 25.4906 26.0104 25.9014C25.9635 26.0214 25.7618 26.1808 25.6691 26.159C25.5355 26.1281 25.3569 25.9609 25.3361 25.8295C25.2128 25.0567 25.1204 24.2786 25.0358 23.5002C24.9799 22.986 24.9675 22.4665 24.9087 21.9526C24.8826 21.7265 24.8404 21.4715 24.7141 21.2949C24.5518 21.0678 24.2978 20.9065 24.0834 20.7169C23.9367 20.9439 23.7048 21.1547 23.658 21.4009C23.4778 22.3439 23.3656 23.2999 23.2101 24.248C23.1486 24.6231 23.0409 24.9903 22.9541 25.3611C22.8868 25.3702 22.8191 25.3796 22.7518 25.3888C22.6558 25.1311 22.4961 24.8781 22.4756 24.6146C22.4011 23.6554 22.3367 22.6923 22.3341 21.7307C22.3247 18.2305 22.3819 14.7293 22.3306 11.23C22.3084 9.73636 22.0986 8.24368 21.9314 6.75524C21.8973 6.45046 21.6738 6.16715 21.5375 5.87408C21.4715 5.8705 21.4058 5.86725 21.3398 5.86367C21.1963 6.11022 20.9833 6.34084 20.9234 6.60627C20.791 7.19436 20.6879 7.79709 20.6574 8.39851C20.4941 11.5901 20.4511 14.7911 20.173 17.9719C20.0175 19.7524 19.4939 21.5014 19.1165 23.2605C19.0746 23.456 18.9269 23.6453 18.787 23.8001C18.2328 24.4142 17.7836 24.3209 17.4986 23.5471C17.1324 22.5521 16.9597 21.5408 16.9626 20.4638C16.9746 16.0356 16.9532 11.6067 16.8744 7.1794C16.8497 5.77552 16.6198 4.37425 16.4591 2.97461C16.4275 2.69943 16.3091 2.42392 16.1816 2.17379C16.1123 2.03782 15.925 1.85665 15.8157 1.87226C15.6589 1.89438 15.4429 2.05083 15.3958 2.19623C15.2149 2.75244 15.0025 3.32069 14.9609 3.89577C14.5335 9.75945 14.4609 15.6332 14.5562 21.5092C14.5842 23.2329 14.1181 24.0207 12.468 24.5323C11.5761 24.8091 10.6221 24.91 9.68789 25.0176C9.06142 25.0895 8.76445 24.7561 8.73452 24.0769C8.63174 21.7581 8.54033 19.4389 8.44113 17.12C8.41218 16.4422 8.17766 16.1224 7.7239 16.1143C7.24705 16.1055 6.86128 16.5166 6.82355 17.1321C6.66352 19.7508 6.496 22.3696 6.37565 24.9903C6.33597 25.8565 6.11348 26.562 5.32112 27.0093C4.61235 27.4093 4.19633 27.2018 4.14624 26.3792C4.10721 25.7381 4.15274 25.0908 4.09387 24.4523C4.05223 23.9985 3.92636 23.5461 3.78128 23.1122C3.73217 22.9655 3.50643 22.7846 3.36526 22.7876C3.21954 22.7908 3.00128 22.9726 2.95021 23.1223C2.82043 23.5041 2.70463 23.9101 2.69325 24.3095C2.65649 25.6122 2.64283 26.9169 2.67178 28.2196C2.69162 29.1151 2.40051 29.8469 1.79778 30.4975C1.19245 31.1519 0.62875 31.8434 0 32.573ZM29.2104 40.6677C29.1346 41.2109 29.0829 42.1256 28.8701 43.0009C28.3965 44.9486 27.5899 46.735 26.0995 48.1519C25.7628 48.472 25.5013 48.4869 25.1318 48.2238C24.3765 47.6861 23.7686 47.0288 23.3155 46.2211C21.9529 43.7933 21.6885 41.2087 22.1959 38.5089C22.568 36.5287 23.3262 34.7615 24.9392 33.4558C25.4467 33.0453 25.5901 33.0518 26.0683 33.5118C27.9958 35.3671 28.9567 37.6622 29.2104 40.6677Z" fill="#B17F4A"/>
</svg>
