<svg width="54" height="37" viewBox="0 0 54 37" fill="none" xmlns="http://www.w3.org/2000/svg">
<g id="&#240;&#159;&#166;&#134; icon &#34;brand gucci&#34;">
<path id="Vector" d="M34.7636 36.3979C32.208 36.5044 29.7588 35.9187 27.3629 34.9603C26.8305 34.8006 26.0851 34.9071 25.5526 35.12C18.6843 37.7822 10.4317 36.5044 5.16071 30.8074C0.209146 25.5364 -1.2284 19.2537 1.06103 12.4387C3.35046 5.62363 8.35527 1.57719 15.4365 0.29937C19.0038 -0.339542 22.4646 0.0331567 25.7656 1.52395C26.5642 1.84341 27.2032 1.57719 27.9486 1.31098C34.9233 -1.13818 41.4189 -0.233056 47.1159 4.71851C56.2204 12.5984 54.9958 27.1869 44.72 33.6292C41.6852 35.4927 38.4374 36.5044 34.7636 36.3979ZM30.5042 32.1385C36.5739 34.1084 43.4954 31.6593 47.0627 26.2818C50.6832 20.9043 50.3105 13.823 46.1575 8.92467C41.9514 3.97311 35.3493 2.69529 30.6107 4.39905C33.2728 6.90145 35.296 9.77656 36.2544 13.3971C35.1895 13.3971 34.2844 13.3438 33.3793 13.3971C32.6871 13.4503 32.3677 13.2373 32.1015 12.5984C31.0366 10.2557 29.4926 8.23252 27.4161 6.63524C26.8305 6.2093 26.4578 6.15606 25.9253 6.63524C23.7956 8.28576 22.2516 10.309 21.1335 12.7049C20.9738 13.0244 20.6011 13.3971 20.2816 13.3971C19.27 13.5035 18.2052 13.4503 17.0871 13.4503C17.9922 9.72331 20.0686 6.84821 22.784 4.34581C17.0338 2.26935 9.84606 4.82499 6.22556 10.1493C2.60506 15.58 3.08425 22.8742 7.29041 27.7193C11.3901 32.4579 18.2584 33.8955 22.571 32.0852C18.3116 27.1336 16.3949 23.2469 16.6079 19.7862H25.1799V23.3534H21.1867C21.5594 25.4299 24.7008 29.5828 26.4045 30.1685C26.6175 30.275 27.0434 30.1152 27.3096 29.9023C29.3329 28.3582 30.9301 26.4415 31.995 24.0988C32.1015 23.8859 32.1015 23.6196 32.208 23.2469H28.1083V19.8394H36.8933C36.3076 24.7377 34.2312 28.7842 30.5042 32.1385Z" fill="black"/>
</g>
</svg>
