<svg width="2500" height="2501" viewBox="0 0 2500 2501" fill="none" xmlns="http://www.w3.org/2000/svg">
<path fill-rule="evenodd" clip-rule="evenodd" d="M0 0.5H2500V2500.5H0V0.5Z" fill="white"/>
<path fill-rule="evenodd" clip-rule="evenodd" d="M1433.77 617.796L1447.93 646.524C1491.6 650.454 1533.3 659.896 1569.9 680.362C1596.64 694.914 1621.04 715.368 1650.16 724.42C1650.56 727.17 1650.16 731.113 1650.56 734.264L1658.03 735.043L1785.87 835.766C1809.89 858.593 1833.9 880.615 1861.43 895.569V906.983L1870.47 907.774C1927.11 947.111 1991.25 978.978 2065.23 965.217C2106.93 956.955 2147.05 921.937 2165.16 882.989L2229.68 740.568C2251.72 695.718 2296.97 653.229 2339.85 626.473C2354.79 618.989 2375.65 611.13 2392.56 620.961C2406.33 630.001 2412.22 644.968 2411.83 661.491C2409.86 687.067 2390.2 712.242 2366.18 721.684C2334.71 739.79 2299.71 748.829 2272.15 775.988C2259.18 797.233 2238.34 814.936 2228.1 836.57C2213.16 866.854 2202.93 899.123 2189.14 930.199H2185.21L2173.01 955.775C2156.08 978.602 2133.69 1000.62 2110.05 1013.61L2107.69 1020.69C2139.18 1068.69 2149.79 1125.74 2158.45 1183.17C2159.62 1212.29 2153.33 1244.95 2163.95 1270.9C2166.31 1276.8 2170.26 1282.33 2173.41 1288.61V1298.46L2212.75 1329.54C2222.98 1368.88 2247.75 1403.88 2241.88 1448.34C2235.95 1468.03 2235.57 1490.84 2239.11 1511.3C2234.78 1517.6 2224.92 1514.06 2218.24 1514.06C2196.61 1511.3 2170.65 1498.7 2165.54 1475.1C2161.99 1442.44 2162.4 1408.63 2160.04 1375.57L2081.74 1307.1C2062.47 1284.68 2051.06 1259.12 2030.6 1237.08L2018 1215.83L1967.64 1099.77C1958.81 1086.17 1947.13 1074.66 1933.41 1066.04C1919.69 1057.41 1904.25 1051.87 1888.18 1049.81L1777.22 1039.57C1732.76 1029.34 1692.23 1009.66 1653.68 985.281C1623.01 963.246 1597.04 930.186 1566.75 907.385H1554.15C1531.72 932.17 1501.82 940.432 1468.76 936.502C1420.38 933.35 1383.02 903.844 1336.59 895.582C1332.63 904.233 1330.68 914.466 1327.55 923.908C1310.22 925.88 1287.39 930.99 1274.84 915.257C1264.2 903.844 1262.22 886.542 1266.55 871.588C1279.14 840.902 1312.2 828.308 1343.28 827.128C1368.05 825.948 1390.5 831.447 1414.88 830.669L1418.4 828.308L1414.07 803.523L1395.97 787.012L1345.24 791.331L1294.88 754.355L1286.21 743.33V724.446L1307.05 699.661L1317.29 675.654L1351.89 645.759L1368.02 617.044C1379.83 613.101 1387.71 622.154 1396.38 626.486L1408.56 623.334L1421.55 608.769H1433.35L1433.77 617.796ZM456.095 1193.03C479.311 1195.78 506.845 1200.46 515.509 1225.65L517.87 1237.45V1538.03C516.287 1562.42 509.219 1589.17 484.032 1599.02C471.438 1603.73 457.664 1606.09 443.501 1606.49H306.385V1738.29H148.037V1193.03H456.095ZM718.317 1518.75L715.568 1543.55V1642.71C715.568 1652.64 719.692 1662.37 729.134 1667.1C737.007 1669.84 746.825 1668.27 753.517 1663.94C762.57 1656.87 764.542 1646.26 764.542 1635.21V1193.03H916.599V1386.95L912.475 1414.11L912.086 1676.93C910.114 1697.4 907.352 1719.82 886.899 1730.03C870.764 1737.13 852.282 1738.69 832.996 1738.32L624.87 1737.92C605.195 1735.56 583.549 1734.38 571.759 1715.88C562.706 1700.15 561.526 1680.88 560.735 1661.59V1193.03H718.305L718.317 1518.75ZM1452.67 1193.03C1475.47 1194.99 1499.86 1209.13 1506.17 1231.94C1511.66 1249.24 1511.66 1273.26 1506.17 1290.56L1506.54 1401.9L1509.71 1423.15V1738.31H1357.04V1455.02L1361 1440.86L1360.59 1309.84C1358.65 1299.23 1355.89 1288.58 1356.66 1276.78C1355.09 1270.5 1349.97 1265 1344.07 1262.64C1336.2 1259.1 1325.96 1261.04 1319.27 1265.78C1307.47 1274.42 1313.37 1291.74 1311.8 1305.12L1307.47 1312.18L1307.87 1465.24L1311.8 1479.4V1738.29H1160.33L1160.73 1540L1165.05 1521.1V1335.43L1160.33 1324L1159.94 1276.4C1158.37 1268.93 1151.68 1262.24 1144.59 1260.67C1135.54 1260.67 1125.71 1261.46 1119.42 1268.14C1114.3 1274.04 1115.49 1282.3 1115.49 1290.17C1115.1 1308.67 1116.67 1327.94 1111.17 1344.05L1111.56 1559.67L1115.49 1578.54V1738.28H966.766L966.377 1381.43L962.849 1362.16L963.238 1232.72C964.821 1216.2 980.955 1202.03 995.896 1198.1C1005.34 1195.34 1014.78 1193.42 1024.61 1193.02L1452.67 1193.03Z" fill="black"/>
<path fill-rule="evenodd" clip-rule="evenodd" d="M1846.09 1193.03C1866.15 1195.78 1887.79 1199.68 1898.02 1219.36L1900.38 1230.37C1900.38 1261.67 1898.81 1300.98 1904.71 1326.36V1738.31H1752.45V1606.88H1711.94V1738.31H1554.39V1413.32L1557.53 1399.16V1287.02C1551.62 1270.51 1554.97 1250.03 1554.56 1231.94C1561.65 1211.49 1583.08 1193.03 1604.92 1193.03H1846.09Z" fill="black"/>
<path fill-rule="evenodd" clip-rule="evenodd" d="M353.4 1265.38C357.343 1272.85 358.912 1281.11 358.912 1290.17L358.523 1508.13C357.343 1517.96 353.011 1528.57 343.18 1533.69C332.947 1539.6 318.991 1538.82 306.398 1538.82V1252C323.699 1250.03 343.958 1248.87 353.4 1265.38ZM1754.42 1271.69L1757.18 1277.97C1757.18 1307.87 1759.13 1344.76 1752.45 1366.88V1538.43H1711.94V1376.73L1705.06 1355.87V1282.3C1705.06 1272.95 1715.08 1264.6 1724.14 1261.46C1735.13 1257.91 1747.73 1261.84 1754.42 1271.69ZM642.12 1724.26C643.947 1724.26 645.698 1723.53 646.99 1722.24C648.281 1720.95 649.007 1719.2 649.007 1717.37V1631.47C649.007 1629.65 648.281 1627.9 646.99 1626.6C645.698 1625.31 643.947 1624.59 642.12 1624.59C640.294 1624.59 638.542 1625.31 637.25 1626.6C635.959 1627.9 635.233 1629.65 635.233 1631.47V1717.37C635.231 1718.28 635.408 1719.17 635.754 1720.01C636.099 1720.85 636.607 1721.61 637.246 1722.25C637.886 1722.89 638.646 1723.39 639.483 1723.74C640.319 1724.08 641.215 1724.26 642.12 1724.26ZM614.248 1724.26C616.075 1724.26 617.826 1723.53 619.118 1722.24C620.409 1720.95 621.135 1719.2 621.135 1717.37V1684.6C621.135 1682.77 620.409 1681.02 619.118 1679.73C617.826 1678.44 616.075 1677.71 614.248 1677.71C612.422 1677.71 610.67 1678.44 609.378 1679.73C608.087 1681.02 607.361 1682.77 607.361 1684.6V1717.37C607.361 1721.17 610.448 1724.26 614.248 1724.26ZM724.413 1724.26C726.24 1724.26 727.991 1723.53 729.283 1722.24C730.575 1720.95 731.3 1719.2 731.3 1717.37V1684.6C731.3 1682.77 730.575 1681.02 729.283 1679.73C727.991 1678.44 726.24 1677.71 724.413 1677.71C722.587 1677.71 720.835 1678.44 719.543 1679.73C718.252 1681.02 717.526 1682.77 717.526 1684.6V1717.37C717.526 1721.17 720.613 1724.26 724.413 1724.26ZM755.891 1724.26C756.795 1724.26 757.69 1724.08 758.524 1723.73C759.359 1723.39 760.118 1722.88 760.756 1722.24C761.395 1721.6 761.901 1720.84 762.245 1720.01C762.59 1719.17 762.767 1718.28 762.765 1717.37V1684.6C762.765 1682.77 762.04 1681.02 760.75 1679.73C759.459 1678.44 757.709 1677.72 755.884 1677.72C754.06 1677.72 752.31 1678.44 751.019 1679.73C749.729 1681.02 749.004 1682.77 749.004 1684.6V1717.37C749.002 1718.28 749.179 1719.17 749.525 1720.01C749.87 1720.85 750.377 1721.61 751.017 1722.25C751.657 1722.89 752.417 1723.39 753.253 1723.74C754.09 1724.08 754.986 1724.26 755.891 1724.26ZM668.669 1724.26C670.496 1724.26 672.247 1723.53 673.539 1722.24C674.831 1720.95 675.556 1719.2 675.556 1717.37V1592.91C675.556 1591.09 674.831 1589.34 673.539 1588.04C672.247 1586.75 670.496 1586.03 668.669 1586.03C666.843 1586.03 665.091 1586.75 663.799 1588.04C662.508 1589.34 661.782 1591.09 661.782 1592.91V1717.37C661.782 1721.17 664.869 1724.26 668.669 1724.26ZM694.246 1724.26C696.072 1724.26 697.824 1723.53 699.115 1722.24C700.407 1720.95 701.132 1719.2 701.132 1717.37V1550.81C701.132 1548.99 700.407 1547.24 699.115 1545.95C697.824 1544.65 696.072 1543.93 694.246 1543.93C692.419 1543.93 690.667 1544.65 689.376 1545.95C688.084 1547.24 687.359 1548.99 687.359 1550.81V1717.37C687.359 1721.17 690.445 1724.26 694.246 1724.26ZM786.707 1724.26C788.534 1724.26 790.285 1723.53 791.577 1722.24C792.868 1720.95 793.594 1719.2 793.594 1717.37V1550.81C793.594 1548.99 792.868 1547.24 791.577 1545.95C790.285 1544.65 788.534 1543.93 786.707 1543.93C784.881 1543.93 783.129 1544.65 781.837 1545.95C780.546 1547.24 779.82 1548.99 779.82 1550.81V1717.37C779.818 1718.28 779.995 1719.17 780.341 1720.01C780.686 1720.85 781.194 1721.61 781.833 1722.25C782.473 1722.89 783.233 1723.39 784.069 1723.74C784.906 1724.08 785.802 1724.26 786.707 1724.26ZM813.58 1724.26C815.407 1724.26 817.159 1723.53 818.45 1722.24C819.742 1720.95 820.467 1719.2 820.467 1717.37V1469.38C820.467 1467.55 819.742 1465.8 818.45 1464.51C817.159 1463.22 815.407 1462.49 813.58 1462.49C811.754 1462.49 810.002 1463.22 808.711 1464.51C807.419 1465.8 806.693 1467.55 806.693 1469.38V1717.37C806.697 1719.2 807.424 1720.95 808.714 1722.24C810.005 1723.53 811.755 1724.26 813.58 1724.26ZM839.157 1724.26C840.983 1724.26 842.735 1723.53 844.027 1722.24C845.318 1720.95 846.044 1719.2 846.044 1717.37V1456.41C846.044 1454.58 845.318 1452.83 844.027 1451.54C842.735 1450.25 840.983 1449.52 839.157 1449.52C837.33 1449.52 835.578 1450.25 834.287 1451.54C832.995 1452.83 832.27 1454.58 832.27 1456.41V1717.37C832.27 1721.17 835.357 1724.26 839.157 1724.26ZM864.733 1724.26C865.637 1724.26 866.532 1724.08 867.367 1723.73C868.202 1723.39 868.96 1722.88 869.598 1722.24C870.237 1721.6 870.743 1720.84 871.088 1720.01C871.432 1719.17 871.609 1718.28 871.607 1717.37V1439.33C871.607 1437.5 870.882 1435.75 869.592 1434.46C868.302 1433.17 866.551 1432.45 864.727 1432.45C862.902 1432.45 861.152 1433.17 859.861 1434.46C858.571 1435.75 857.846 1437.5 857.846 1439.33V1717.37C857.846 1721.17 860.933 1724.26 864.733 1724.26ZM890.309 1724.26C891.213 1724.26 892.108 1724.08 892.943 1723.73C893.778 1723.39 894.536 1722.88 895.175 1722.24C895.813 1721.6 896.319 1720.84 896.664 1720.01C897.009 1719.17 897.185 1718.28 897.184 1717.37V1427.68C897.184 1425.86 896.459 1424.11 895.168 1422.81C893.878 1421.52 892.128 1420.8 890.303 1420.8C888.478 1420.8 886.728 1421.52 885.438 1422.81C884.147 1424.11 883.423 1425.86 883.423 1427.68V1717.37C883.423 1721.17 886.509 1724.26 890.309 1724.26ZM985.209 1724.26C987.037 1724.26 988.79 1723.53 990.084 1722.24C991.377 1720.95 992.106 1719.2 992.109 1717.37V1379.28C992.109 1377.45 991.384 1375.7 990.092 1374.41C988.8 1373.12 987.049 1372.39 985.222 1372.39C983.396 1372.39 981.644 1373.12 980.352 1374.41C979.061 1375.7 978.335 1377.45 978.335 1379.28V1717.37C978.335 1721.17 981.422 1724.26 985.209 1724.26ZM1011.62 1724.26C1012.52 1724.26 1013.42 1724.08 1014.25 1723.74C1015.09 1723.39 1015.85 1722.89 1016.49 1722.25C1017.13 1721.61 1017.64 1720.85 1017.98 1720.01C1018.33 1719.17 1018.5 1718.28 1018.5 1717.37V1372.45C1018.5 1370.63 1017.78 1368.88 1016.49 1367.59C1015.2 1366.3 1013.45 1365.57 1011.62 1365.57C1009.8 1365.57 1008.05 1366.3 1006.76 1367.59C1005.47 1368.88 1004.74 1370.63 1004.74 1372.45V1717.37C1004.74 1718.28 1004.92 1719.17 1005.26 1720.01C1005.61 1720.84 1006.11 1721.6 1006.75 1722.24C1007.39 1722.88 1008.15 1723.39 1008.98 1723.73C1009.82 1724.08 1010.71 1724.26 1011.62 1724.26ZM1038.01 1724.26C1039.84 1724.26 1041.59 1723.53 1042.88 1722.24C1044.17 1720.95 1044.9 1719.2 1044.9 1717.37V1365.11C1044.9 1363.29 1044.17 1361.54 1042.88 1360.24C1041.59 1358.95 1039.84 1358.23 1038.01 1358.23C1036.18 1358.23 1034.43 1358.95 1033.14 1360.24C1031.85 1361.54 1031.12 1363.29 1031.12 1365.11V1717.37C1031.12 1721.17 1034.21 1724.26 1038.01 1724.26ZM1064.4 1599.53C1065.31 1599.53 1066.2 1599.35 1067.03 1599.01C1067.87 1598.67 1068.63 1598.16 1069.27 1597.53C1069.91 1596.89 1070.41 1596.13 1070.76 1595.3C1071.11 1594.46 1071.29 1593.57 1071.29 1592.67V1358.42C1071.29 1356.59 1070.56 1354.84 1069.27 1353.55C1067.98 1352.26 1066.23 1351.53 1064.4 1351.53C1062.58 1351.53 1060.82 1352.26 1059.53 1353.55C1058.24 1354.84 1057.52 1356.59 1057.52 1358.42V1592.67C1057.52 1593.57 1057.7 1594.46 1058.04 1595.3C1058.39 1596.13 1058.9 1596.89 1059.54 1597.53C1060.18 1598.16 1060.94 1598.67 1061.77 1599.01C1062.61 1599.35 1063.5 1599.53 1064.4 1599.53ZM1090.8 1578.93C1091.7 1578.93 1092.59 1578.76 1093.43 1578.42C1094.26 1578.07 1095.02 1577.57 1095.66 1576.93C1096.3 1576.29 1096.81 1575.54 1097.15 1574.7C1097.5 1573.87 1097.68 1572.97 1097.68 1572.07V1355.28C1097.68 1353.46 1096.96 1351.7 1095.67 1350.41C1094.37 1349.12 1092.62 1348.4 1090.8 1348.4C1088.97 1348.4 1087.22 1349.12 1085.93 1350.41C1084.63 1351.7 1083.91 1353.46 1083.91 1355.28V1572.07C1083.91 1572.97 1084.09 1573.87 1084.44 1574.7C1084.78 1575.54 1085.29 1576.29 1085.93 1576.93C1086.57 1577.57 1087.33 1578.07 1088.16 1578.42C1089 1578.76 1089.89 1578.93 1090.8 1578.93ZM1182.6 1521.41C1184.42 1521.41 1186.17 1520.69 1187.47 1519.4C1188.76 1518.1 1189.48 1516.35 1189.48 1514.53V1339.56C1189.48 1337.74 1188.76 1335.99 1187.47 1334.69C1186.17 1333.4 1184.42 1332.68 1182.6 1332.68C1180.77 1332.68 1179.02 1333.4 1177.73 1334.69C1176.43 1335.99 1175.71 1337.74 1175.71 1339.56V1514.53C1175.71 1518.31 1178.8 1521.41 1182.6 1521.41ZM1208.99 1513.53C1209.89 1513.53 1210.79 1513.35 1211.62 1513.01C1212.46 1512.66 1213.21 1512.16 1213.85 1511.52C1214.49 1510.89 1215 1510.13 1215.35 1509.3C1215.7 1508.46 1215.87 1507.57 1215.88 1506.67V1335.61C1215.87 1334.7 1215.7 1333.81 1215.35 1332.98C1215 1332.14 1214.49 1331.39 1213.85 1330.75C1213.21 1330.11 1212.46 1329.61 1211.62 1329.26C1210.79 1328.92 1209.89 1328.74 1208.99 1328.75C1208.09 1328.74 1207.19 1328.92 1206.36 1329.26C1205.52 1329.61 1204.76 1330.11 1204.13 1330.75C1203.49 1331.39 1202.98 1332.14 1202.63 1332.98C1202.28 1333.81 1202.1 1334.7 1202.1 1335.61V1506.67C1202.1 1507.57 1202.28 1508.46 1202.63 1509.3C1202.98 1510.13 1203.49 1510.89 1204.13 1511.52C1204.76 1512.16 1205.52 1512.66 1206.36 1513.01C1207.19 1513.35 1208.09 1513.53 1208.99 1513.53ZM1235.38 1501.72C1239.18 1501.72 1242.26 1498.66 1242.26 1494.86V1327.75C1242.26 1325.92 1241.53 1324.17 1240.24 1322.88C1238.95 1321.59 1237.2 1320.87 1235.38 1320.87C1233.55 1320.87 1231.8 1321.59 1230.51 1322.88C1229.22 1324.17 1228.5 1325.92 1228.5 1327.75V1494.86C1228.5 1495.77 1228.68 1496.66 1229.02 1497.49C1229.37 1498.33 1229.88 1499.08 1230.52 1499.72C1231.16 1500.36 1231.92 1500.86 1232.75 1501.21C1233.59 1501.55 1234.48 1501.73 1235.38 1501.72ZM1261.76 1489.92C1262.67 1489.93 1263.57 1489.75 1264.4 1489.4C1265.24 1489.06 1266 1488.55 1266.64 1487.91C1267.28 1487.27 1267.79 1486.51 1268.13 1485.67C1268.48 1484.84 1268.65 1483.94 1268.65 1483.03V1323.81C1268.65 1321.98 1267.93 1320.23 1266.64 1318.94C1265.34 1317.65 1263.59 1316.92 1261.77 1316.92C1259.95 1316.92 1258.2 1317.65 1256.9 1318.94C1255.61 1320.23 1254.89 1321.98 1254.89 1323.81V1483.03C1254.89 1483.94 1255.06 1484.83 1255.41 1485.67C1255.75 1486.5 1256.26 1487.26 1256.9 1487.9C1257.54 1488.54 1258.3 1489.05 1259.13 1489.4C1259.96 1489.74 1260.86 1489.92 1261.76 1489.92ZM1288.16 1478.12C1289.06 1478.12 1289.95 1477.94 1290.79 1477.6C1291.62 1477.26 1292.38 1476.75 1293.02 1476.12C1293.66 1475.48 1294.17 1474.72 1294.52 1473.89C1294.86 1473.05 1295.04 1472.16 1295.04 1471.26V1319.88C1295.04 1318.05 1294.32 1316.3 1293.03 1315.01C1291.74 1313.71 1289.98 1312.99 1288.16 1312.99C1286.33 1312.99 1284.58 1313.71 1283.29 1315.01C1282 1316.3 1281.27 1318.05 1281.27 1319.88V1471.26C1281.27 1472.16 1281.45 1473.05 1281.8 1473.89C1282.15 1474.72 1282.65 1475.48 1283.29 1476.12C1283.93 1476.75 1284.69 1477.26 1285.53 1477.6C1286.36 1477.94 1287.25 1478.12 1288.16 1478.12ZM1380.14 1445.33C1381.04 1445.33 1381.93 1445.15 1382.77 1444.8C1383.6 1444.46 1384.36 1443.95 1385 1443.31C1385.63 1442.67 1386.14 1441.91 1386.48 1441.08C1386.83 1440.24 1387 1439.35 1387 1438.44V1308.06C1387 1306.24 1386.28 1304.49 1384.99 1303.2C1383.7 1301.91 1381.95 1301.19 1380.13 1301.19C1378.3 1301.19 1376.55 1301.91 1375.26 1303.2C1373.98 1304.49 1373.25 1306.24 1373.25 1308.06V1438.44C1373.25 1442.24 1376.34 1445.33 1380.14 1445.33ZM1407.67 1441.41C1409.5 1441.41 1411.25 1440.69 1412.54 1439.4C1413.83 1438.11 1414.56 1436.35 1414.56 1434.53V1304.14C1414.56 1302.32 1413.83 1300.56 1412.54 1299.27C1411.25 1297.98 1409.5 1297.26 1407.67 1297.26C1405.85 1297.26 1404.1 1297.98 1402.8 1299.27C1401.51 1300.56 1400.79 1302.32 1400.79 1304.14V1434.53C1400.79 1438.32 1403.87 1441.41 1407.67 1441.41ZM1435.21 1433.53C1436.11 1433.53 1437.01 1433.35 1437.84 1433C1438.68 1432.66 1439.44 1432.15 1440.08 1431.51C1440.72 1430.87 1441.22 1430.11 1441.57 1429.28C1441.92 1428.44 1442.1 1427.55 1442.1 1426.64V1300.21C1442.1 1298.39 1441.37 1296.63 1440.08 1295.34C1438.79 1294.05 1437.03 1293.33 1435.21 1293.33C1433.38 1293.33 1431.63 1294.05 1430.34 1295.34C1429.05 1296.63 1428.32 1298.39 1428.32 1300.21V1426.64C1428.32 1430.44 1431.41 1433.53 1435.21 1433.53ZM1462.74 1425.66C1463.65 1425.66 1464.54 1425.48 1465.38 1425.14C1466.22 1424.79 1466.98 1424.28 1467.62 1423.64C1468.26 1423 1468.76 1422.24 1469.11 1421.41C1469.45 1420.57 1469.63 1419.67 1469.63 1418.77V1296.27C1469.63 1292.47 1466.54 1289.41 1462.74 1289.41C1458.94 1289.41 1455.86 1292.47 1455.86 1296.27V1418.77C1455.85 1419.67 1456.03 1420.57 1456.38 1421.41C1456.72 1422.24 1457.23 1423 1457.87 1423.64C1458.51 1424.28 1459.27 1424.79 1460.11 1425.14C1460.94 1425.48 1461.84 1425.66 1462.74 1425.66ZM1490.3 1417.8C1491.21 1417.8 1492.1 1417.62 1492.93 1417.27C1493.77 1416.92 1494.52 1416.41 1495.16 1415.77C1495.8 1415.13 1496.3 1414.38 1496.65 1413.54C1496.99 1412.71 1497.17 1411.81 1497.16 1410.91V1288.41C1497.16 1286.59 1496.44 1284.84 1495.15 1283.55C1493.86 1282.26 1492.11 1281.54 1490.29 1281.54C1488.47 1281.54 1486.72 1282.26 1485.43 1283.55C1484.14 1284.84 1483.42 1286.59 1483.42 1288.41V1410.91C1483.42 1411.81 1483.59 1412.71 1483.94 1413.55C1484.28 1414.38 1484.79 1415.14 1485.43 1415.78C1486.07 1416.42 1486.83 1416.93 1487.67 1417.28C1488.5 1417.62 1489.4 1417.8 1490.3 1417.8ZM1578.67 1398.12C1579.57 1398.12 1580.47 1397.95 1581.3 1397.6C1582.14 1397.25 1582.89 1396.75 1583.53 1396.11C1584.17 1395.47 1584.67 1394.71 1585.02 1393.87C1585.36 1393.03 1585.53 1392.14 1585.53 1391.23V1288.41C1585.53 1286.59 1584.8 1284.84 1583.51 1283.55C1582.23 1282.26 1580.48 1281.54 1578.65 1281.54C1576.83 1281.54 1575.08 1282.26 1573.79 1283.55C1572.5 1284.84 1571.78 1286.59 1571.78 1288.41V1391.23C1571.78 1392.14 1571.96 1393.04 1572.3 1393.87C1572.65 1394.71 1573.15 1395.47 1573.79 1396.11C1574.43 1396.75 1575.19 1397.26 1576.03 1397.6C1576.87 1397.95 1577.76 1398.12 1578.67 1398.12ZM1604.37 1390.24C1605.28 1390.24 1606.17 1390.07 1607.01 1389.72C1607.84 1389.38 1608.6 1388.88 1609.24 1388.24C1609.89 1387.6 1610.39 1386.84 1610.74 1386.01C1611.08 1385.17 1611.26 1384.28 1611.26 1383.38V1284.45C1611.26 1283.55 1611.08 1282.66 1610.74 1281.82C1610.39 1280.99 1609.89 1280.23 1609.24 1279.59C1608.6 1278.95 1607.84 1278.45 1607.01 1278.11C1606.17 1277.76 1605.28 1277.59 1604.37 1277.59C1603.47 1277.59 1602.58 1277.77 1601.75 1278.11C1600.91 1278.46 1600.16 1278.96 1599.52 1279.6C1598.88 1280.24 1598.37 1280.99 1598.03 1281.83C1597.69 1282.66 1597.51 1283.55 1597.51 1284.45V1383.38C1597.51 1387.18 1600.57 1390.24 1604.37 1390.24ZM1630.12 1382.39C1631.02 1382.39 1631.92 1382.21 1632.76 1381.87C1633.59 1381.52 1634.35 1381.02 1634.99 1380.38C1635.63 1379.74 1636.14 1378.98 1636.48 1378.14C1636.83 1377.3 1637.01 1376.41 1637 1375.5V1280.54C1637 1278.71 1636.28 1276.97 1634.99 1275.68C1633.7 1274.39 1631.95 1273.66 1630.13 1273.66C1628.31 1273.66 1626.56 1274.39 1625.27 1275.68C1623.98 1276.97 1623.26 1278.71 1623.26 1280.54V1375.5C1623.25 1376.41 1623.43 1377.3 1623.77 1378.14C1624.11 1378.97 1624.62 1379.73 1625.26 1380.37C1625.89 1381.01 1626.65 1381.52 1627.49 1381.86C1628.32 1382.21 1629.21 1382.39 1630.12 1382.39ZM1655.85 1374.5C1656.76 1374.51 1657.65 1374.33 1658.49 1373.99C1659.33 1373.64 1660.09 1373.13 1660.73 1372.49C1661.37 1371.85 1661.87 1371.09 1662.22 1370.26C1662.56 1369.42 1662.74 1368.52 1662.74 1367.62V1276.6C1662.74 1274.77 1662.01 1273.02 1660.72 1271.73C1659.43 1270.45 1657.69 1269.72 1655.86 1269.72C1654.04 1269.72 1652.29 1270.45 1651 1271.73C1649.71 1273.02 1648.99 1274.77 1648.99 1276.6V1367.62C1648.99 1371.44 1652.05 1374.5 1655.85 1374.5ZM1681.58 1370.59C1682.49 1370.59 1683.38 1370.41 1684.22 1370.07C1685.06 1369.72 1685.82 1369.21 1686.46 1368.57C1687.1 1367.93 1687.6 1367.17 1687.95 1366.34C1688.29 1365.5 1688.47 1364.6 1688.47 1363.7V1272.65C1688.47 1270.83 1687.74 1269.08 1686.46 1267.79C1685.17 1266.5 1683.42 1265.78 1681.59 1265.78C1679.77 1265.78 1678.02 1266.5 1676.73 1267.79C1675.45 1269.08 1674.72 1270.83 1674.72 1272.65V1363.7C1674.72 1367.49 1677.81 1370.59 1681.58 1370.59ZM1778.43 1345.26C1779.33 1345.26 1780.22 1345.08 1781.06 1344.73C1781.89 1344.38 1782.65 1343.87 1783.28 1343.23C1783.92 1342.6 1784.43 1341.84 1784.77 1341C1785.11 1340.17 1785.29 1339.27 1785.29 1338.37V1264.79C1785.29 1262.97 1784.56 1261.22 1783.27 1259.93C1781.99 1258.64 1780.24 1257.92 1778.41 1257.92C1776.59 1257.92 1774.84 1258.64 1773.55 1259.93C1772.26 1261.22 1771.54 1262.97 1771.54 1264.79V1338.36C1771.54 1339.26 1771.71 1340.16 1772.06 1341C1772.4 1341.84 1772.91 1342.6 1773.55 1343.24C1774.19 1343.88 1774.95 1344.39 1775.79 1344.74C1776.62 1345.08 1777.52 1345.26 1778.43 1345.26ZM1804.39 1337.77C1805.3 1337.77 1806.19 1337.59 1807.02 1337.25C1807.86 1336.9 1808.61 1336.39 1809.25 1335.75C1809.89 1335.11 1810.39 1334.35 1810.74 1333.52C1811.08 1332.68 1811.26 1331.79 1811.25 1330.89V1260.85C1811.26 1259.95 1811.08 1259.06 1810.73 1258.22C1810.39 1257.39 1809.89 1256.63 1809.25 1255.99C1808.61 1255.36 1807.85 1254.85 1807.02 1254.51C1806.19 1254.16 1805.29 1253.99 1804.39 1253.99C1803.49 1253.98 1802.59 1254.16 1801.76 1254.5C1800.92 1254.84 1800.16 1255.35 1799.52 1255.99C1798.88 1256.62 1798.37 1257.38 1798.03 1258.22C1797.68 1259.05 1797.5 1259.95 1797.51 1260.85V1330.89C1797.5 1331.79 1797.68 1332.69 1798.03 1333.52C1798.37 1334.36 1798.88 1335.12 1799.52 1335.76C1800.16 1336.4 1800.92 1336.91 1801.75 1337.25C1802.59 1337.6 1803.49 1337.78 1804.39 1337.77ZM1830.36 1329.9C1831.26 1329.9 1832.15 1329.72 1832.99 1329.37C1833.82 1329.03 1834.58 1328.52 1835.21 1327.88C1835.85 1327.24 1836.36 1326.48 1836.7 1325.65C1837.04 1324.81 1837.22 1323.92 1837.22 1323.01V1256.92C1837.22 1255.1 1836.49 1253.35 1835.21 1252.06C1833.92 1250.77 1832.17 1250.05 1830.34 1250.05C1828.52 1250.05 1826.77 1250.77 1825.48 1252.06C1824.2 1253.35 1823.47 1255.1 1823.47 1256.92V1323.01C1823.47 1323.92 1823.65 1324.82 1823.99 1325.65C1824.34 1326.49 1824.84 1327.25 1825.48 1327.89C1826.12 1328.53 1826.88 1329.03 1827.72 1329.38C1828.56 1329.73 1829.45 1329.9 1830.36 1329.9ZM1856.3 1324C1857.2 1324 1858.1 1323.83 1858.94 1323.48C1859.77 1323.14 1860.53 1322.63 1861.18 1321.99C1861.82 1321.35 1862.32 1320.59 1862.67 1319.75C1863.01 1318.92 1863.19 1318.02 1863.18 1317.11V1252.99C1863.18 1251.17 1862.46 1249.42 1861.17 1248.13C1859.88 1246.84 1858.13 1246.12 1856.31 1246.12C1854.49 1246.12 1852.74 1246.84 1851.45 1248.13C1850.16 1249.42 1849.44 1251.17 1849.44 1252.99V1317.1C1849.43 1318 1849.61 1318.9 1849.95 1319.74C1850.29 1320.57 1850.8 1321.33 1851.44 1321.97C1852.07 1322.61 1852.83 1323.12 1853.67 1323.47C1854.5 1323.82 1855.39 1324 1856.3 1324ZM1882.29 1311.81C1884.12 1311.81 1885.87 1311.08 1887.16 1309.79C1888.45 1308.5 1889.18 1306.75 1889.18 1304.92V1249.05C1889.18 1247.22 1888.45 1245.47 1887.16 1244.18C1885.87 1242.89 1884.12 1242.16 1882.29 1242.16C1880.46 1242.16 1878.71 1242.89 1877.42 1244.18C1876.13 1245.47 1875.4 1247.22 1875.4 1249.05V1304.92C1875.4 1308.72 1878.49 1311.81 1882.29 1311.81Z" fill="white"/>
<path fill-rule="evenodd" clip-rule="evenodd" d="M2055.05 1652.37C2064.8 1662.33 2069.69 1674.08 2069.69 1687.63C2069.69 1701.56 2064.77 1713.52 2054.97 1723.51C2045.16 1733.42 2033.36 1738.36 2019.53 1738.36C2012.92 1738.46 2006.35 1737.21 2000.24 1734.66C1994.13 1732.12 1988.61 1728.35 1984.02 1723.59C1974.17 1713.73 1969.23 1701.74 1969.23 1687.65C1969.23 1674.04 1974.06 1662.29 1983.76 1652.38C1993.62 1642.25 2005.55 1637.18 2019.53 1637.18C2033.36 1637.17 2045.19 1642.24 2055.05 1652.37ZM2062.57 1644.6C2050.69 1632.72 2036.33 1626.77 2019.53 1626.77C2003.53 1626.77 1989.55 1632.27 1977.66 1643.28C1964.98 1655.05 1958.65 1669.85 1958.65 1687.63C1958.65 1704.75 1964.5 1719.2 1976.23 1730.93C1987.95 1742.65 2002.4 1748.53 2019.52 1748.53C2036.08 1748.53 2050.3 1742.81 2062.15 1731.33C2074.32 1719.5 2080.42 1704.93 2080.42 1687.63C2080.43 1670.84 2074.48 1656.51 2062.57 1644.6ZM2027.06 1683.03C2024.75 1684.68 2021.51 1685.48 2017.38 1685.48H2010.55V1665.92H2014.83C2019.24 1665.92 2022.66 1666.38 2025.09 1667.31C2028.7 1668.75 2030.53 1671.32 2030.53 1674.99C2030.53 1678.7 2029.37 1681.36 2027.06 1683.03ZM2010.55 1697.65H2014.24L2018.15 1697.88C2020.83 1698.06 2022.86 1698.41 2024.18 1698.97C2025.32 1699.37 2026.36 1700.03 2027.21 1700.89C2028.07 1701.75 2028.72 1702.79 2029.12 1703.94C2029.68 1705.35 2030.03 1708.11 2030.21 1712.2C2030.36 1716.24 2030.71 1719.37 2031.27 1721.52H2048.12L2047.56 1719.63C2047.33 1718.97 2047.19 1718.31 2047.11 1717.66C2047.03 1717.01 2046.98 1716.34 2046.98 1715.69V1709.66C2046.98 1702.77 2044.98 1697.72 2041.03 1694.53C2038.87 1692.81 2035.68 1691.55 2031.45 1690.65C2036.06 1690.15 2039.96 1688.63 2043.13 1686.09C2046.29 1683.55 2047.89 1679.45 2047.89 1673.78C2047.89 1666.36 2044.88 1660.99 2038.87 1657.67C2035.36 1655.75 2030.92 1654.61 2025.58 1654.2C2020.94 1654.13 2016.31 1654.09 2011.68 1654.09C2003.31 1654.04 1997.06 1654.04 1992.88 1654.04V1721.52H2010.56L2010.55 1697.65Z" fill="black"/>
</svg>
