<svg width="5" height="5" viewBox="0 0 5 5" fill="none" xmlns="http://www.w3.org/2000/svg">
<path fill-rule="evenodd" clip-rule="evenodd" d="M3.89031 1.0333C4.28394 1.43531 4.48128 1.90956 4.48128 2.45657C4.48128 3.01875 4.28289 3.50138 3.88716 3.90444C3.49143 4.30436 3.01509 4.50379 2.45709 4.50379C2.19008 4.50803 1.92505 4.45728 1.67848 4.35471C1.43192 4.25214 1.2091 4.09995 1.02388 3.90758C0.626055 3.50975 0.426616 3.02608 0.426616 2.45708C0.426616 1.90798 0.621865 1.43374 1.01341 1.03382C1.41123 0.625002 1.89281 0.420333 2.45709 0.420333C3.01509 0.41981 3.49248 0.624479 3.89031 1.0333ZM4.19391 0.719748C3.71443 0.240265 3.13496 0 2.45709 0C1.81115 0 1.24686 0.221945 0.766857 0.666357C0.255443 1.14165 0 1.73891 0 2.45657C0 3.14752 0.236075 3.73065 0.709277 4.20385C1.18248 4.67705 1.76561 4.91417 2.45657 4.91417C3.12502 4.91417 3.69872 4.68334 4.17715 4.22008C4.66815 3.74269 4.91418 3.15485 4.91418 2.45657C4.9147 1.77869 4.67444 1.20028 4.19391 0.719748ZM2.76069 2.27074C2.66752 2.33722 2.53665 2.36967 2.3702 2.36967H2.09434V1.58031H2.26708C2.44505 1.58031 2.58325 1.59863 2.68113 1.63631C2.82717 1.69442 2.90098 1.79806 2.90098 1.9462C2.90098 2.0959 2.85387 2.20322 2.76069 2.27074ZM2.09434 2.86067H2.24352L2.40108 2.87009C2.50944 2.87742 2.59109 2.89155 2.64449 2.91406C2.69059 2.93046 2.73244 2.95699 2.76695 2.99168C2.80146 3.02637 2.82776 3.06836 2.84392 3.11455C2.86643 3.1716 2.88056 3.2831 2.88789 3.44798C2.89417 3.6113 2.9083 3.73746 2.93081 3.82435H3.61078L3.58827 3.74792C3.57885 3.72123 3.57309 3.69453 3.56995 3.66836C3.56681 3.64219 3.56471 3.61496 3.56471 3.58879V3.34539C3.56471 3.06743 3.4841 2.86381 3.32445 2.73504C3.23756 2.66542 3.10879 2.61465 2.93815 2.57853C3.12397 2.55812 3.28153 2.49687 3.40925 2.39427C3.53697 2.29168 3.60136 2.12627 3.60136 1.89752C3.60136 1.59811 3.47991 1.38139 3.23756 1.24739C3.0957 1.16992 2.91668 1.12385 2.70102 1.1071C2.51398 1.10438 2.32693 1.10299 2.13987 1.10292C1.80225 1.10082 1.54995 1.10082 1.3814 1.10082V3.82435H2.09486L2.09434 2.86067Z" fill="black"/>
</svg>
