<svg width="40" height="40" viewBox="0 0 40 40" fill="none" xmlns="http://www.w3.org/2000/svg">
<g id="&#240;&#159;&#166;&#134; icon &#34;brand louis vuitton&#34;">
<path id="Vector" d="M32.28 5.08L21.88 29.6L19.04 23.32L24.32 8.88C24.72 7.76 26.12 7.28 28.48 7.28L29.28 5.08H16.96L16.16 7.28C17.92 7.28 18.64 7.76 18.36 8.88L15.72 16.2L10.56 5.08C9.6 3.88 10.08 3.28 11.96 3.28V0.68H0V3.28C2.24 3.28 3.64 3.88 4.24 5.08L12.96 23.72L8.88 34.64C8.8 36.12 6.48 36.84 2.04 36.84L1.2 39.04H35.28L40 28.96H37.52C35.24 34.16 32.56 36.84 29.56 36.84H13.92L16.24 30.68L18.24 34.64H22.68L35.28 5.08C35.88 3.28 37.4 2.32 39.84 2.32V0H29.56V2.32C32.68 2.32 33.56 3.28 32.28 5.08Z" fill="black"/>
</g>
</svg>
