<svg width="50" height="30" viewBox="0 0 50 30" fill="none" xmlns="http://www.w3.org/2000/svg">
<path fill-rule="evenodd" clip-rule="evenodd" d="M48.8366 21.5978V21.7468C49.4063 21.7468 49.8793 21.3322 49.8793 20.8218C49.8772 20.5798 49.7666 20.3482 49.5716 20.177C49.3765 20.0059 49.1125 19.9089 48.8366 19.9071V20.0452C49.3213 20.0452 49.7215 20.386 49.7215 20.8112C49.7215 21.2468 49.3213 21.5978 48.8366 21.5978Z" fill="black"/>
<path fill-rule="evenodd" clip-rule="evenodd" d="M48.8366 20.79V20.8963H48.9336L49.1156 21.2898H49.273L49.0427 20.8539C49.3217 20.7903 49.3217 20.3542 48.8853 20.3542H48.8366V20.4499H48.8974C49.2122 20.4499 49.176 20.7903 48.8732 20.7903L48.8366 20.79ZM48.8366 20.0452V19.9071C48.279 19.9071 47.8064 20.3217 47.8064 20.8218C47.8064 21.3322 48.279 21.7468 48.8366 21.7468V21.5978C48.3519 21.5978 47.9517 21.2468 47.9517 20.8112C47.9531 20.6057 48.0467 20.4089 48.2124 20.2636C48.378 20.1182 48.6023 20.0361 48.8366 20.0349V20.0452Z" fill="black"/>
<path fill-rule="evenodd" clip-rule="evenodd" d="M48.8366 20.4496V20.3538H48.4968V21.2895H48.6305V20.8963H48.8366V20.79H48.6305V20.4496H48.8366ZM7.04245 22.3956V22.7997C6.30135 22.3412 5.4162 22.096 4.50935 22.0979H4.49727C2.03629 22.0979 0 23.8738 0 26.0431C0 28.2018 2.03629 29.9883 4.4969 29.9883H4.50898C5.46636 29.9883 6.32708 29.7223 7.04209 29.2755V29.6693H8.98136V22.3956H7.04245ZM4.50898 28.2018H4.4969C3.13938 28.2018 2.04837 27.2341 2.04837 26.0431C2.04837 24.8624 3.13901 23.884 4.4969 23.884H4.50898C5.85443 23.884 6.9696 24.8624 6.9696 26.0431C6.9696 27.2341 5.85443 28.2018 4.50898 28.2018ZM39.4181 22.4062V22.7997C38.691 22.3642 37.7937 22.0979 36.8608 22.0979H36.8488C34.3881 22.0979 32.3519 23.8738 32.3519 26.0431C32.3519 28.2124 34.3881 29.9883 36.8488 29.9883H36.8608C37.794 29.9883 38.691 29.7223 39.4181 29.2861V29.6796H41.3457V22.4062H39.4181ZM36.8608 28.2124H36.8488C35.5033 28.2124 34.4002 27.2341 34.4002 26.0431C34.4002 24.873 35.5033 23.895 36.8488 23.895H36.8608C38.2063 23.895 39.3215 24.8733 39.3215 26.0431C39.3211 27.2341 38.2059 28.2124 36.8608 28.2124ZM16.7396 19.9283V22.7994C16.0242 22.3847 15.1397 22.0976 14.2061 22.0976H14.194C11.7213 22.0976 9.70918 23.884 9.70918 26.0322C9.70918 28.2121 11.7213 29.9879 14.194 29.9879H14.2061C15.1397 29.9879 16.0366 29.722 16.7396 29.2858V29.6687H18.6788V19.9283H16.7396ZM14.2061 28.2018H14.194C12.8486 28.2018 11.7455 27.2341 11.7455 26.0325C11.7455 24.8624 12.8486 23.8844 14.194 23.8844H14.2061C15.5515 23.8844 16.6667 24.8627 16.6667 26.0325C16.6667 27.2341 15.5515 28.2018 14.2061 28.2018ZM29.7576 19.9283V22.7994C29.0177 22.3847 28.1332 22.0976 27.2 22.0976H27.1883C24.7397 22.0976 22.7152 23.884 22.7152 26.0322C22.7152 28.2121 24.7394 29.9879 27.1883 29.9879H27.2C28.1336 29.9879 29.0302 29.722 29.7576 29.2858V29.6687H31.6606V19.9283H29.7576ZM27.2 28.2018H27.1883C25.8425 28.2018 24.7518 27.2341 24.7518 26.0325C24.7518 24.8624 25.8425 23.8844 27.1883 23.8844H27.2C28.5454 23.8844 29.661 24.8627 29.661 26.0325C29.661 27.2341 28.5454 28.2018 27.2 28.2018ZM20.0484 21.7998H21.9881V19.9495H20.0484V21.7998ZM20.0484 29.6902H21.9881V22.4274H20.0484V29.6902ZM42.1573 27.3192C42.206 29.148 44.109 30.0307 46.1937 29.9992C48.4848 29.9671 50.0239 29.0526 49.9997 27.3937C49.9514 24.4908 44.5454 25.4797 44.5454 24.2781C44.5454 23.7674 45.0423 23.5548 45.9637 23.5548C47.1276 23.5548 47.37 24.0228 47.4666 24.5335H49.5878C49.5392 23.683 48.703 22.0128 45.8667 22.0128C43.4303 22.0128 42.3514 23.172 42.3514 24.5865C42.3514 27.4364 47.709 26.4153 47.709 27.7342C47.709 28.0746 47.3088 28.5426 46.2303 28.5426C45.2605 28.5426 44.4847 28.1703 44.4847 27.3195L42.1573 27.3192Z" fill="black"/>
<path fill-rule="evenodd" clip-rule="evenodd" d="M20.0484 19.9495H29.7576L21.7578 6.94414L14.2182 10.5174L20.0484 19.9495ZM23.0058 3.57324L30.533 0L42.8364 19.9495H33.091L23.0058 3.57324ZM16.7758 19.9495L13.0305 13.888L5.50296 17.4506L7.05453 19.9495H16.7758Z" fill="#2F489A"/>
</svg>
