<svg width="260" height="14" viewBox="0 0 260 14" fill="none" xmlns="http://www.w3.org/2000/svg">
<path d="M6.924 2.308C7.812 2.308 8.584 2.476 9.24 2.812C9.896 3.148 10.4 3.62 10.752 4.228C11.104 4.828 11.28 5.524 11.28 6.316C11.28 6.948 11.176 7.556 10.968 8.14C10.76 8.716 10.456 9.184 10.056 9.544C9.664 9.904 9.204 10.084 8.676 10.084C8.276 10.084 7.968 9.984 7.752 9.784C7.536 9.584 7.412 9.312 7.38 8.968C7.132 9.312 6.816 9.584 6.432 9.784C6.056 9.984 5.656 10.084 5.232 10.084C4.624 10.084 4.144 9.9 3.792 9.532C3.448 9.156 3.276 8.652 3.276 8.02C3.276 7.42 3.4 6.86 3.648 6.34C3.904 5.82 4.256 5.404 4.704 5.092C5.152 4.772 5.66 4.612 6.228 4.612C6.988 4.612 7.5 4.9 7.764 5.476L7.896 4.732H8.844L8.244 8.2C8.22 8.352 8.208 8.492 8.208 8.62C8.208 9.1 8.42 9.34 8.844 9.34C9.164 9.34 9.44 9.188 9.672 8.884C9.912 8.58 10.092 8.2 10.212 7.744C10.332 7.28 10.392 6.824 10.392 6.376C10.392 5.328 10.076 4.516 9.444 3.94C8.82 3.364 7.936 3.076 6.792 3.076C5.84 3.076 4.98 3.308 4.212 3.772C3.452 4.228 2.856 4.856 2.424 5.656C1.992 6.456 1.776 7.34 1.776 8.308C1.768 9.364 2.084 10.176 2.724 10.744C3.364 11.32 4.252 11.608 5.388 11.608C6.14 11.608 6.804 11.472 7.38 11.2L7.524 11.944C6.812 12.24 6.028 12.388 5.172 12.388C4.316 12.388 3.56 12.224 2.904 11.896C2.256 11.576 1.752 11.112 1.392 10.504C1.04 9.904 0.864 9.204 0.864 8.404C0.864 7.276 1.124 6.248 1.644 5.32C2.164 4.384 2.884 3.648 3.804 3.112C4.732 2.576 5.772 2.308 6.924 2.308ZM5.556 9.232C5.916 9.232 6.248 9.128 6.552 8.92C6.856 8.704 7.096 8.416 7.272 8.056C7.448 7.688 7.536 7.288 7.536 6.856C7.536 6.44 7.42 6.104 7.188 5.848C6.964 5.584 6.644 5.452 6.228 5.452C5.844 5.452 5.504 5.568 5.208 5.8C4.92 6.024 4.696 6.324 4.536 6.7C4.376 7.068 4.296 7.452 4.296 7.852C4.296 8.276 4.404 8.612 4.62 8.86C4.836 9.108 5.148 9.232 5.556 9.232ZM15.9636 9.124C16.9796 8.308 17.7756 7.64 18.3516 7.12C18.9276 6.592 19.4116 6.044 19.8036 5.476C20.2036 4.9 20.4036 4.336 20.4036 3.784C20.4036 3.264 20.2756 2.856 20.0196 2.56C19.7716 2.256 19.3676 2.104 18.8076 2.104C18.2636 2.104 17.8396 2.276 17.5356 2.62C17.2396 2.956 17.0796 3.408 17.0556 3.976H15.9996C16.0316 3.08 16.3036 2.388 16.8156 1.9C17.3276 1.412 17.9876 1.168 18.7956 1.168C19.6196 1.168 20.2716 1.396 20.7516 1.852C21.2396 2.308 21.4836 2.936 21.4836 3.736C21.4836 4.4 21.2836 5.048 20.8836 5.68C20.4916 6.304 20.0436 6.856 19.5396 7.336C19.0356 7.808 18.3916 8.36 17.6076 8.992H21.7356V9.904H15.9636V9.124ZM22.9979 5.572C22.9979 4.196 23.2219 3.124 23.6699 2.356C24.1179 1.58 24.9019 1.192 26.0219 1.192C27.1339 1.192 27.9139 1.58 28.3619 2.356C28.8099 3.124 29.0339 4.196 29.0339 5.572C29.0339 6.972 28.8099 8.06 28.3619 8.836C27.9139 9.612 27.1339 10 26.0219 10C24.9019 10 24.1179 9.612 23.6699 8.836C23.2219 8.06 22.9979 6.972 22.9979 5.572ZM27.9539 5.572C27.9539 4.876 27.9059 4.288 27.8099 3.808C27.7219 3.32 27.5339 2.928 27.2459 2.632C26.9659 2.336 26.5579 2.188 26.0219 2.188C25.4779 2.188 25.0619 2.336 24.7739 2.632C24.4939 2.928 24.3059 3.32 24.2099 3.808C24.1219 4.288 24.0779 4.876 24.0779 5.572C24.0779 6.292 24.1219 6.896 24.2099 7.384C24.3059 7.872 24.4939 8.264 24.7739 8.56C25.0619 8.856 25.4779 9.004 26.0219 9.004C26.5579 9.004 26.9659 8.856 27.2459 8.56C27.5339 8.264 27.7219 7.872 27.8099 7.384C27.9059 6.896 27.9539 6.292 27.9539 5.572ZM30.4011 9.124C31.4171 8.308 32.2131 7.64 32.7891 7.12C33.3651 6.592 33.8491 6.044 34.2411 5.476C34.6411 4.9 34.8411 4.336 34.8411 3.784C34.8411 3.264 34.7131 2.856 34.4571 2.56C34.2091 2.256 33.8051 2.104 33.2451 2.104C32.7011 2.104 32.2771 2.276 31.9731 2.62C31.6771 2.956 31.5171 3.408 31.4931 3.976H30.4371C30.4691 3.08 30.7411 2.388 31.2531 1.9C31.7651 1.412 32.4251 1.168 33.2331 1.168C34.0571 1.168 34.7091 1.396 35.1891 1.852C35.6771 2.308 35.9211 2.936 35.9211 3.736C35.9211 4.4 35.7211 5.048 35.3211 5.68C34.9291 6.304 34.4811 6.856 33.9771 7.336C33.4731 7.808 32.8291 8.36 32.0451 8.992H36.1731V9.904H30.4011V9.124ZM37.1714 8.068V7.24L41.3834 1.408H42.6914V7.12H43.8914V8.068H42.6914V10H41.6114V8.068H37.1714ZM41.6594 2.548L38.4314 7.12H41.6594V2.548ZM53.0895 1.636V2.524H49.4535V5.344H52.4055V6.232H49.4535V10H48.3615V1.636H53.0895ZM54.0004 6.688C54.0004 6.016 54.1364 5.428 54.4084 4.924C54.6804 4.412 55.0524 4.016 55.5244 3.736C56.0044 3.456 56.5364 3.316 57.1204 3.316C57.6964 3.316 58.1964 3.44 58.6204 3.688C59.0444 3.936 59.3604 4.248 59.5684 4.624V3.424H60.6724V10H59.5684V8.776C59.3524 9.16 59.0284 9.48 58.5964 9.736C58.1724 9.984 57.6764 10.108 57.1084 10.108C56.5244 10.108 55.9964 9.964 55.5244 9.676C55.0524 9.388 54.6804 8.984 54.4084 8.464C54.1364 7.944 54.0004 7.352 54.0004 6.688ZM59.5684 6.7C59.5684 6.204 59.4684 5.772 59.2684 5.404C59.0684 5.036 58.7964 4.756 58.4524 4.564C58.1164 4.364 57.7444 4.264 57.3364 4.264C56.9284 4.264 56.5564 4.36 56.2204 4.552C55.8844 4.744 55.6164 5.024 55.4164 5.392C55.2164 5.76 55.1164 6.192 55.1164 6.688C55.1164 7.192 55.2164 7.632 55.4164 8.008C55.6164 8.376 55.8844 8.66 56.2204 8.86C56.5564 9.052 56.9284 9.148 57.3364 9.148C57.7444 9.148 58.1164 9.052 58.4524 8.86C58.7964 8.66 59.0684 8.376 59.2684 8.008C59.4684 7.632 59.5684 7.196 59.5684 6.7ZM64.8458 10.108C64.3418 10.108 63.8898 10.024 63.4898 9.856C63.0898 9.68 62.7738 9.44 62.5418 9.136C62.3098 8.824 62.1818 8.468 62.1578 8.068H63.2858C63.3178 8.396 63.4698 8.664 63.7418 8.872C64.0218 9.08 64.3858 9.184 64.8338 9.184C65.2498 9.184 65.5778 9.092 65.8178 8.908C66.0578 8.724 66.1778 8.492 66.1778 8.212C66.1778 7.924 66.0498 7.712 65.7938 7.576C65.5378 7.432 65.1418 7.292 64.6058 7.156C64.1178 7.028 63.7178 6.9 63.4058 6.772C63.1018 6.636 62.8378 6.44 62.6138 6.184C62.3978 5.92 62.2898 5.576 62.2898 5.152C62.2898 4.816 62.3898 4.508 62.5898 4.228C62.7898 3.948 63.0738 3.728 63.4418 3.568C63.8098 3.4 64.2298 3.316 64.7018 3.316C65.4298 3.316 66.0178 3.5 66.4658 3.868C66.9138 4.236 67.1538 4.74 67.1858 5.38H66.0938C66.0698 5.036 65.9298 4.76 65.6738 4.552C65.4258 4.344 65.0898 4.24 64.6658 4.24C64.2738 4.24 63.9618 4.324 63.7298 4.492C63.4978 4.66 63.3818 4.88 63.3818 5.152C63.3818 5.368 63.4498 5.548 63.5858 5.692C63.7298 5.828 63.9058 5.94 64.1138 6.028C64.3298 6.108 64.6258 6.2 65.0018 6.304C65.4738 6.432 65.8578 6.56 66.1538 6.688C66.4498 6.808 66.7018 6.992 66.9098 7.24C67.1258 7.488 67.2378 7.812 67.2458 8.212C67.2458 8.572 67.1458 8.896 66.9458 9.184C66.7458 9.472 66.4618 9.7 66.0938 9.868C65.7338 10.028 65.3178 10.108 64.8458 10.108ZM72.0513 3.304C72.5473 3.304 72.9953 3.412 73.3953 3.628C73.7953 3.836 74.1073 4.152 74.3313 4.576C74.5633 5 74.6793 5.516 74.6793 6.124V10H73.5993V6.28C73.5993 5.624 73.4353 5.124 73.1073 4.78C72.7793 4.428 72.3313 4.252 71.7633 4.252C71.1873 4.252 70.7273 4.432 70.3833 4.792C70.0473 5.152 69.8793 5.676 69.8793 6.364V10H68.7873V1.12H69.8793V4.36C70.0953 4.024 70.3913 3.764 70.7673 3.58C71.1513 3.396 71.5793 3.304 72.0513 3.304ZM77.0271 2.356C76.8191 2.356 76.6431 2.284 76.4991 2.14C76.3551 1.996 76.2831 1.82 76.2831 1.612C76.2831 1.404 76.3551 1.228 76.4991 1.084C76.6431 0.94 76.8191 0.868 77.0271 0.868C77.2271 0.868 77.3951 0.94 77.5311 1.084C77.6751 1.228 77.7471 1.404 77.7471 1.612C77.7471 1.82 77.6751 1.996 77.5311 2.14C77.3951 2.284 77.2271 2.356 77.0271 2.356ZM77.5551 3.424V10H76.4631V3.424H77.5551ZM82.2842 10.108C81.6682 10.108 81.1082 9.968 80.6042 9.688C80.1082 9.408 79.7162 9.012 79.4282 8.5C79.1482 7.98 79.0082 7.38 79.0082 6.7C79.0082 6.028 79.1522 5.436 79.4402 4.924C79.7362 4.404 80.1362 4.008 80.6402 3.736C81.1442 3.456 81.7082 3.316 82.3322 3.316C82.9562 3.316 83.5202 3.456 84.0242 3.736C84.5282 4.008 84.9242 4.4 85.2122 4.912C85.5082 5.424 85.6562 6.02 85.6562 6.7C85.6562 7.38 85.5042 7.98 85.2002 8.5C84.9042 9.012 84.5002 9.408 83.9882 9.688C83.4762 9.968 82.9082 10.108 82.2842 10.108ZM82.2842 9.148C82.6762 9.148 83.0442 9.056 83.3882 8.872C83.7322 8.688 84.0082 8.412 84.2162 8.044C84.4322 7.676 84.5402 7.228 84.5402 6.7C84.5402 6.172 84.4362 5.724 84.2282 5.356C84.0202 4.988 83.7482 4.716 83.4122 4.54C83.0762 4.356 82.7122 4.264 82.3202 4.264C81.9202 4.264 81.5522 4.356 81.2162 4.54C80.8882 4.716 80.6242 4.988 80.4242 5.356C80.2242 5.724 80.1242 6.172 80.1242 6.7C80.1242 7.236 80.2202 7.688 80.4122 8.056C80.6122 8.424 80.8762 8.7 81.2042 8.884C81.5322 9.06 81.8922 9.148 82.2842 9.148ZM90.296 3.304C91.096 3.304 91.744 3.548 92.24 4.036C92.736 4.516 92.984 5.212 92.984 6.124V10H91.904V6.28C91.904 5.624 91.74 5.124 91.412 4.78C91.084 4.428 90.636 4.252 90.068 4.252C89.492 4.252 89.032 4.432 88.688 4.792C88.352 5.152 88.184 5.676 88.184 6.364V10H87.092V3.424H88.184V4.36C88.4 4.024 88.692 3.764 89.06 3.58C89.436 3.396 89.848 3.304 90.296 3.304ZM104.303 4.06C104.071 3.572 103.735 3.196 103.295 2.932C102.855 2.66 102.343 2.524 101.759 2.524C101.175 2.524 100.647 2.66 100.175 2.932C99.711 3.196 99.343 3.58 99.071 4.084C98.807 4.58 98.675 5.156 98.675 5.812C98.675 6.468 98.807 7.044 99.071 7.54C99.343 8.036 99.711 8.42 100.175 8.692C100.647 8.956 101.175 9.088 101.759 9.088C102.575 9.088 103.247 8.844 103.775 8.356C104.303 7.868 104.611 7.208 104.699 6.376H101.363V5.488H105.863V6.328C105.799 7.016 105.583 7.648 105.215 8.224C104.847 8.792 104.363 9.244 103.763 9.58C103.163 9.908 102.495 10.072 101.759 10.072C100.983 10.072 100.275 9.892 99.635 9.532C98.995 9.164 98.487 8.656 98.111 8.008C97.743 7.36 97.559 6.628 97.559 5.812C97.559 4.996 97.743 4.264 98.111 3.616C98.487 2.96 98.995 2.452 99.635 2.092C100.275 1.724 100.983 1.54 101.759 1.54C102.647 1.54 103.431 1.76 104.111 2.2C104.799 2.64 105.299 3.26 105.611 4.06H104.303ZM106.899 6.688C106.899 6.016 107.035 5.428 107.307 4.924C107.579 4.412 107.951 4.016 108.423 3.736C108.903 3.456 109.435 3.316 110.019 3.316C110.595 3.316 111.095 3.44 111.519 3.688C111.943 3.936 112.259 4.248 112.467 4.624V3.424H113.571V10H112.467V8.776C112.251 9.16 111.927 9.48 111.495 9.736C111.071 9.984 110.575 10.108 110.007 10.108C109.423 10.108 108.895 9.964 108.423 9.676C107.951 9.388 107.579 8.984 107.307 8.464C107.035 7.944 106.899 7.352 106.899 6.688ZM112.467 6.7C112.467 6.204 112.367 5.772 112.167 5.404C111.967 5.036 111.695 4.756 111.351 4.564C111.015 4.364 110.643 4.264 110.235 4.264C109.827 4.264 109.455 4.36 109.119 4.552C108.783 4.744 108.515 5.024 108.315 5.392C108.115 5.76 108.015 6.192 108.015 6.688C108.015 7.192 108.115 7.632 108.315 8.008C108.515 8.376 108.783 8.66 109.119 8.86C109.455 9.052 109.827 9.148 110.235 9.148C110.643 9.148 111.015 9.052 111.351 8.86C111.695 8.66 111.967 8.376 112.167 8.008C112.367 7.632 112.467 7.196 112.467 6.7ZM116.508 1.12V10H115.416V1.12H116.508ZM119.461 1.12V10H118.369V1.12H119.461ZM122.414 1.12V10H121.322V1.12H122.414ZM130.276 6.46C130.276 6.668 130.264 6.888 130.24 7.12H124.984C125.024 7.768 125.244 8.276 125.644 8.644C126.052 9.004 126.544 9.184 127.12 9.184C127.592 9.184 127.984 9.076 128.296 8.86C128.616 8.636 128.84 8.34 128.968 7.972H130.144C129.968 8.604 129.616 9.12 129.088 9.52C128.56 9.912 127.904 10.108 127.12 10.108C126.496 10.108 125.936 9.968 125.44 9.688C124.952 9.408 124.568 9.012 124.288 8.5C124.008 7.98 123.868 7.38 123.868 6.7C123.868 6.02 124.004 5.424 124.276 4.912C124.548 4.4 124.928 4.008 125.416 3.736C125.912 3.456 126.48 3.316 127.12 3.316C127.744 3.316 128.296 3.452 128.776 3.724C129.256 3.996 129.624 4.372 129.88 4.852C130.144 5.324 130.276 5.86 130.276 6.46ZM129.148 6.232C129.148 5.816 129.056 5.46 128.872 5.164C128.688 4.86 128.436 4.632 128.116 4.48C127.804 4.32 127.456 4.24 127.072 4.24C126.52 4.24 126.048 4.416 125.656 4.768C125.272 5.12 125.052 5.608 124.996 6.232H129.148ZM132.809 4.492C133.001 4.116 133.273 3.824 133.625 3.616C133.985 3.408 134.421 3.304 134.933 3.304V4.432H134.645C133.421 4.432 132.809 5.096 132.809 6.424V10H131.717V3.424H132.809V4.492ZM141.858 3.424L137.898 13.096H136.77L138.066 9.928L135.414 3.424H136.626L138.69 8.752L140.73 3.424H141.858ZM143.303 10.072C143.095 10.072 142.919 10 142.775 9.856C142.631 9.712 142.559 9.536 142.559 9.328C142.559 9.12 142.631 8.944 142.775 8.8C142.919 8.656 143.095 8.584 143.303 8.584C143.503 8.584 143.671 8.656 143.807 8.8C143.951 8.944 144.023 9.12 144.023 9.328C144.023 9.536 143.951 9.712 143.807 9.856C143.671 10 143.503 10.072 143.303 10.072ZM153.618 8.14H149.97L149.298 10H148.146L151.17 1.684H152.43L155.442 10H154.29L153.618 8.14ZM153.306 7.252L151.794 3.028L150.282 7.252H153.306ZM157.852 1.12V10H156.76V1.12H157.852ZM160.805 1.12V10H159.713V1.12H160.805ZM170.269 10L168.277 6.58H166.957V10H165.865V1.636H168.565C169.197 1.636 169.729 1.744 170.161 1.96C170.601 2.176 170.929 2.468 171.145 2.836C171.361 3.204 171.469 3.624 171.469 4.096C171.469 4.672 171.301 5.18 170.965 5.62C170.637 6.06 170.141 6.352 169.477 6.496L171.577 10H170.269ZM166.957 5.704H168.565C169.157 5.704 169.601 5.56 169.897 5.272C170.193 4.976 170.341 4.584 170.341 4.096C170.341 3.6 170.193 3.216 169.897 2.944C169.609 2.672 169.165 2.536 168.565 2.536H166.957V5.704ZM173.73 2.356C173.522 2.356 173.346 2.284 173.202 2.14C173.058 1.996 172.986 1.82 172.986 1.612C172.986 1.404 173.058 1.228 173.202 1.084C173.346 0.94 173.522 0.868 173.73 0.868C173.93 0.868 174.098 0.94 174.234 1.084C174.378 1.228 174.45 1.404 174.45 1.612C174.45 1.82 174.378 1.996 174.234 2.14C174.098 2.284 173.93 2.356 173.73 2.356ZM174.258 3.424V10H173.166V3.424H174.258ZM178.831 3.316C179.399 3.316 179.895 3.44 180.319 3.688C180.751 3.936 181.071 4.248 181.279 4.624V3.424H182.383V10.144C182.383 10.744 182.255 11.276 181.999 11.74C181.743 12.212 181.375 12.58 180.895 12.844C180.423 13.108 179.871 13.24 179.239 13.24C178.375 13.24 177.655 13.036 177.079 12.628C176.503 12.22 176.163 11.664 176.059 10.96H177.139C177.259 11.36 177.507 11.68 177.883 11.92C178.259 12.168 178.711 12.292 179.239 12.292C179.839 12.292 180.327 12.104 180.703 11.728C181.087 11.352 181.279 10.824 181.279 10.144V8.764C181.063 9.148 180.743 9.468 180.319 9.724C179.895 9.98 179.399 10.108 178.831 10.108C178.247 10.108 177.715 9.964 177.235 9.676C176.763 9.388 176.391 8.984 176.119 8.464C175.847 7.944 175.711 7.352 175.711 6.688C175.711 6.016 175.847 5.428 176.119 4.924C176.391 4.412 176.763 4.016 177.235 3.736C177.715 3.456 178.247 3.316 178.831 3.316ZM181.279 6.7C181.279 6.204 181.179 5.772 180.979 5.404C180.779 5.036 180.507 4.756 180.163 4.564C179.827 4.364 179.455 4.264 179.047 4.264C178.639 4.264 178.267 4.36 177.931 4.552C177.595 4.744 177.327 5.024 177.127 5.392C176.927 5.76 176.827 6.192 176.827 6.688C176.827 7.192 176.927 7.632 177.127 8.008C177.327 8.376 177.595 8.66 177.931 8.86C178.267 9.052 178.639 9.148 179.047 9.148C179.455 9.148 179.827 9.052 180.163 8.86C180.507 8.66 180.779 8.376 180.979 8.008C181.179 7.632 181.279 7.196 181.279 6.7ZM187.493 3.304C187.989 3.304 188.437 3.412 188.837 3.628C189.237 3.836 189.549 4.152 189.773 4.576C190.005 5 190.121 5.516 190.121 6.124V10H189.041V6.28C189.041 5.624 188.877 5.124 188.549 4.78C188.221 4.428 187.773 4.252 187.205 4.252C186.629 4.252 186.169 4.432 185.825 4.792C185.489 5.152 185.321 5.676 185.321 6.364V10H184.229V1.12H185.321V4.36C185.537 4.024 185.833 3.764 186.209 3.58C186.593 3.396 187.021 3.304 187.493 3.304ZM193.236 4.324V8.2C193.236 8.52 193.304 8.748 193.44 8.884C193.576 9.012 193.812 9.076 194.148 9.076H194.952V10H193.968C193.36 10 192.904 9.86 192.6 9.58C192.296 9.3 192.144 8.84 192.144 8.2V4.324H191.292V3.424H192.144V1.768H193.236V3.424H194.952V4.324H193.236ZM198.604 10.108C198.1 10.108 197.648 10.024 197.248 9.856C196.848 9.68 196.532 9.44 196.3 9.136C196.068 8.824 195.94 8.468 195.916 8.068H197.044C197.076 8.396 197.228 8.664 197.5 8.872C197.78 9.08 198.144 9.184 198.592 9.184C199.008 9.184 199.336 9.092 199.576 8.908C199.816 8.724 199.936 8.492 199.936 8.212C199.936 7.924 199.808 7.712 199.552 7.576C199.296 7.432 198.9 7.292 198.364 7.156C197.876 7.028 197.476 6.9 197.164 6.772C196.86 6.636 196.596 6.44 196.372 6.184C196.156 5.92 196.048 5.576 196.048 5.152C196.048 4.816 196.148 4.508 196.348 4.228C196.548 3.948 196.832 3.728 197.2 3.568C197.568 3.4 197.988 3.316 198.46 3.316C199.188 3.316 199.776 3.5 200.224 3.868C200.672 4.236 200.912 4.74 200.944 5.38H199.852C199.828 5.036 199.688 4.76 199.432 4.552C199.184 4.344 198.848 4.24 198.424 4.24C198.032 4.24 197.72 4.324 197.488 4.492C197.256 4.66 197.14 4.88 197.14 5.152C197.14 5.368 197.208 5.548 197.344 5.692C197.488 5.828 197.664 5.94 197.872 6.028C198.088 6.108 198.384 6.2 198.76 6.304C199.232 6.432 199.616 6.56 199.912 6.688C200.208 6.808 200.46 6.992 200.668 7.24C200.884 7.488 200.996 7.812 201.004 8.212C201.004 8.572 200.904 8.896 200.704 9.184C200.504 9.472 200.22 9.7 199.852 9.868C199.492 10.028 199.076 10.108 198.604 10.108ZM210.148 10L208.156 6.58H206.836V10H205.744V1.636H208.444C209.076 1.636 209.608 1.744 210.04 1.96C210.48 2.176 210.808 2.468 211.024 2.836C211.24 3.204 211.348 3.624 211.348 4.096C211.348 4.672 211.18 5.18 210.844 5.62C210.516 6.06 210.02 6.352 209.356 6.496L211.456 10H210.148ZM206.836 5.704H208.444C209.036 5.704 209.48 5.56 209.776 5.272C210.072 4.976 210.22 4.584 210.22 4.096C210.22 3.6 210.072 3.216 209.776 2.944C209.488 2.672 209.044 2.536 208.444 2.536H206.836V5.704ZM219.045 6.46C219.045 6.668 219.033 6.888 219.009 7.12H213.753C213.793 7.768 214.013 8.276 214.413 8.644C214.821 9.004 215.313 9.184 215.889 9.184C216.361 9.184 216.753 9.076 217.065 8.86C217.385 8.636 217.609 8.34 217.737 7.972H218.913C218.737 8.604 218.385 9.12 217.857 9.52C217.329 9.912 216.673 10.108 215.889 10.108C215.265 10.108 214.705 9.968 214.209 9.688C213.721 9.408 213.337 9.012 213.057 8.5C212.777 7.98 212.637 7.38 212.637 6.7C212.637 6.02 212.773 5.424 213.045 4.912C213.317 4.4 213.697 4.008 214.185 3.736C214.681 3.456 215.249 3.316 215.889 3.316C216.513 3.316 217.065 3.452 217.545 3.724C218.025 3.996 218.393 4.372 218.649 4.852C218.913 5.324 219.045 5.86 219.045 6.46ZM217.917 6.232C217.917 5.816 217.825 5.46 217.641 5.164C217.457 4.86 217.205 4.632 216.885 4.48C216.573 4.32 216.225 4.24 215.841 4.24C215.289 4.24 214.817 4.416 214.425 4.768C214.041 5.12 213.821 5.608 213.765 6.232H217.917ZM222.815 10.108C222.311 10.108 221.859 10.024 221.459 9.856C221.059 9.68 220.743 9.44 220.511 9.136C220.279 8.824 220.151 8.468 220.127 8.068H221.255C221.287 8.396 221.439 8.664 221.711 8.872C221.991 9.08 222.355 9.184 222.803 9.184C223.219 9.184 223.547 9.092 223.787 8.908C224.027 8.724 224.147 8.492 224.147 8.212C224.147 7.924 224.019 7.712 223.763 7.576C223.507 7.432 223.111 7.292 222.575 7.156C222.087 7.028 221.687 6.9 221.375 6.772C221.071 6.636 220.807 6.44 220.583 6.184C220.367 5.92 220.259 5.576 220.259 5.152C220.259 4.816 220.359 4.508 220.559 4.228C220.759 3.948 221.043 3.728 221.411 3.568C221.779 3.4 222.199 3.316 222.671 3.316C223.399 3.316 223.987 3.5 224.435 3.868C224.883 4.236 225.123 4.74 225.155 5.38H224.063C224.039 5.036 223.899 4.76 223.643 4.552C223.395 4.344 223.059 4.24 222.635 4.24C222.243 4.24 221.931 4.324 221.699 4.492C221.467 4.66 221.351 4.88 221.351 5.152C221.351 5.368 221.419 5.548 221.555 5.692C221.699 5.828 221.875 5.94 222.083 6.028C222.299 6.108 222.595 6.2 222.971 6.304C223.443 6.432 223.827 6.56 224.123 6.688C224.419 6.808 224.671 6.992 224.879 7.24C225.095 7.488 225.207 7.812 225.215 8.212C225.215 8.572 225.115 8.896 224.915 9.184C224.715 9.472 224.431 9.7 224.063 9.868C223.703 10.028 223.287 10.108 222.815 10.108ZM232.756 6.46C232.756 6.668 232.744 6.888 232.72 7.12H227.464C227.504 7.768 227.724 8.276 228.124 8.644C228.532 9.004 229.024 9.184 229.6 9.184C230.072 9.184 230.464 9.076 230.776 8.86C231.096 8.636 231.32 8.34 231.448 7.972H232.624C232.448 8.604 232.096 9.12 231.568 9.52C231.04 9.912 230.384 10.108 229.6 10.108C228.976 10.108 228.416 9.968 227.92 9.688C227.432 9.408 227.048 9.012 226.768 8.5C226.488 7.98 226.348 7.38 226.348 6.7C226.348 6.02 226.484 5.424 226.756 4.912C227.028 4.4 227.408 4.008 227.896 3.736C228.392 3.456 228.96 3.316 229.6 3.316C230.224 3.316 230.776 3.452 231.256 3.724C231.736 3.996 232.104 4.372 232.36 4.852C232.624 5.324 232.756 5.86 232.756 6.46ZM231.628 6.232C231.628 5.816 231.536 5.46 231.352 5.164C231.168 4.86 230.916 4.632 230.596 4.48C230.284 4.32 229.936 4.24 229.552 4.24C229 4.24 228.528 4.416 228.136 4.768C227.752 5.12 227.532 5.608 227.476 6.232H231.628ZM235.289 4.492C235.481 4.116 235.753 3.824 236.105 3.616C236.465 3.408 236.901 3.304 237.413 3.304V4.432H237.125C235.901 4.432 235.289 5.096 235.289 6.424V10H234.197V3.424H235.289V4.492ZM241.122 8.992L243.162 3.424H244.326L241.746 10H240.474L237.894 3.424H239.07L241.122 8.992ZM251.401 6.46C251.401 6.668 251.389 6.888 251.365 7.12H246.109C246.149 7.768 246.369 8.276 246.769 8.644C247.177 9.004 247.669 9.184 248.245 9.184C248.717 9.184 249.109 9.076 249.421 8.86C249.741 8.636 249.965 8.34 250.093 7.972H251.269C251.093 8.604 250.741 9.12 250.213 9.52C249.685 9.912 249.029 10.108 248.245 10.108C247.621 10.108 247.061 9.968 246.565 9.688C246.077 9.408 245.693 9.012 245.413 8.5C245.133 7.98 244.993 7.38 244.993 6.7C244.993 6.02 245.129 5.424 245.401 4.912C245.673 4.4 246.053 4.008 246.541 3.736C247.037 3.456 247.605 3.316 248.245 3.316C248.869 3.316 249.421 3.452 249.901 3.724C250.381 3.996 250.749 4.372 251.005 4.852C251.269 5.324 251.401 5.86 251.401 6.46ZM250.273 6.232C250.273 5.816 250.181 5.46 249.997 5.164C249.813 4.86 249.561 4.632 249.241 4.48C248.929 4.32 248.581 4.24 248.197 4.24C247.645 4.24 247.173 4.416 246.781 4.768C246.397 5.12 246.177 5.608 246.121 6.232H250.273ZM252.434 6.688C252.434 6.016 252.57 5.428 252.842 4.924C253.114 4.412 253.486 4.016 253.958 3.736C254.438 3.456 254.974 3.316 255.566 3.316C256.078 3.316 256.554 3.436 256.994 3.676C257.434 3.908 257.77 4.216 258.002 4.6V1.12H259.106V10H258.002V8.764C257.786 9.156 257.466 9.48 257.042 9.736C256.618 9.984 256.122 10.108 255.554 10.108C254.97 10.108 254.438 9.964 253.958 9.676C253.486 9.388 253.114 8.984 252.842 8.464C252.57 7.944 252.434 7.352 252.434 6.688ZM258.002 6.7C258.002 6.204 257.902 5.772 257.702 5.404C257.502 5.036 257.23 4.756 256.886 4.564C256.55 4.364 256.178 4.264 255.77 4.264C255.362 4.264 254.99 4.36 254.654 4.552C254.318 4.744 254.05 5.024 253.85 5.392C253.65 5.76 253.55 6.192 253.55 6.688C253.55 7.192 253.65 7.632 253.85 8.008C254.05 8.376 254.318 8.66 254.654 8.86C254.99 9.052 255.362 9.148 255.77 9.148C256.178 9.148 256.55 9.052 256.886 8.86C257.23 8.66 257.502 8.376 257.702 8.008C257.902 7.632 258.002 7.196 258.002 6.7Z" fill="white"/>
</svg>
