<svg width="54" height="54" viewBox="0 0 54 54" fill="none" xmlns="http://www.w3.org/2000/svg">
<path fill-rule="evenodd" clip-rule="evenodd" d="M53.5357 24.1496C53.443 23.1764 53.2575 22.2495 53.0721 21.2757H36.6635C36.849 20.3025 37.1272 19.3756 37.4049 18.4482H52.2843C51.9613 17.4725 51.5901 16.5133 51.172 15.5744H38.5642C39.0279 14.5926 39.5384 13.6335 40.0938 12.7005H49.5965C48.9851 11.7106 48.3036 10.7657 47.5573 9.87303H42.1336C42.9725 8.84849 43.8867 7.88788 44.8683 6.99917C40.0944 2.68838 33.7902 0 26.8374 0C12.0513 0 0 12.0983 0 27.0229C0 41.9023 12.0513 54 26.8374 54C33.7902 54 40.0938 51.3574 44.8683 47.0008C45.835 46.1277 46.7339 45.1823 47.5573 44.1728H42.1336C41.3917 43.2459 40.743 42.3191 40.0938 41.2989H49.5965C50.194 40.3824 50.7208 39.4216 51.1725 38.4251H38.5642C38.1468 37.4982 37.7301 36.5713 37.4049 35.597H52.2843C52.6084 34.6702 52.8407 33.6975 53.0715 32.7232C53.257 31.7963 53.4425 30.8236 53.5352 29.8493C53.6292 28.9096 53.6758 27.9657 53.6749 27.0213C53.6749 26.0497 53.6285 25.0765 53.5357 24.1496Z" fill="#CC2131"/>
</svg>
