<svg width="86" height="15" viewBox="0 0 86 15" fill="none" xmlns="http://www.w3.org/2000/svg">
<path fill-rule="evenodd" clip-rule="evenodd" d="M60.621 0.811952L60.1104 3.77855C59.0908 3.26848 58.3489 3.03717 57.5148 3.03717C55.3359 3.03717 53.8068 5.16911 53.8068 8.18208C53.8068 10.2682 54.8264 11.5191 56.5421 11.5191C57.2366 11.5191 58.0712 11.2878 58.9981 10.8246L58.4886 13.9293C57.422 14.2075 56.727 14.3471 55.9387 14.3471C52.7872 14.3471 50.8402 12.0755 50.8402 8.41448C50.8402 3.54725 53.5286 0.116943 57.3757 0.116943C57.8852 0.116943 58.3484 0.163312 58.7193 0.256052L59.8786 0.534275C60.2501 0.673385 60.3428 0.719757 60.621 0.811952ZM51.2575 2.85169H50.9793C50.0066 2.85169 49.4502 3.31539 48.5692 4.65904L48.8474 2.94389H46.2048L44.398 14.0684H47.3188C48.3842 7.25468 48.6624 6.09597 50.053 6.09597H50.2385C50.5167 4.75178 50.8871 3.77801 51.3508 2.89752L51.2575 2.85169ZM34.4786 13.9293C33.6909 14.2075 33.0417 14.3002 32.393 14.3002C30.9097 14.3002 30.0751 13.4661 30.0751 11.8442C30.0751 11.566 30.1215 11.1956 30.1678 10.8705L30.3533 9.75812L30.4924 8.87818L31.7439 1.27565H34.6177L34.2931 2.94443H35.7764L35.4055 5.67918H33.9222L33.1344 10.3146C33.0881 10.5 33.0881 10.6397 33.0881 10.7783C33.0881 11.3347 33.3663 11.5666 34.0613 11.5666C34.3859 11.5666 34.6636 11.5666 34.849 11.4738L34.4786 13.9293ZM23.3078 6.46693C23.3078 7.85804 23.9564 8.83072 25.4861 9.57264C26.6912 10.1291 26.8766 10.314 26.8766 10.7777C26.8766 11.4733 26.3666 11.7973 25.2078 11.7973C24.3274 11.7973 23.5391 11.6588 22.6122 11.3805L22.1949 13.9293L22.334 13.9762L22.8441 14.0689C23.029 14.1147 23.2614 14.1617 23.6318 14.1617C24.2804 14.2544 24.8369 14.2544 25.2078 14.2544C28.2666 14.2544 29.7041 13.0951 29.7041 10.5464C29.7041 9.0162 29.1019 8.13517 27.6649 7.4407C26.4135 6.88426 26.2744 6.7457 26.2744 6.23562C26.2744 5.63336 26.7844 5.35514 27.7113 5.35514C28.2677 5.35514 29.0555 5.40151 29.7974 5.49425L30.2142 2.94498C29.4728 2.80587 28.3141 2.71313 27.6649 2.71313C24.4201 2.71258 23.2614 4.42773 23.3078 6.46693ZM82.8236 14.0689H80.0883L80.228 13.0024C79.4397 13.8365 78.605 14.2075 77.5385 14.2075C75.4066 14.2075 74.016 12.4007 74.016 9.61956C74.016 5.91103 76.1949 2.75895 78.7436 2.75895C79.9029 2.75895 80.737 3.26902 81.5258 4.28862L82.1745 0.395166H85.0483L82.8236 14.0689ZM78.5587 11.4733C79.9034 11.4733 80.8303 9.89723 80.8303 7.71838C80.8303 6.28145 80.3196 5.53953 79.3 5.53953C78.0022 5.53953 77.0295 7.0692 77.0295 9.24805C77.0295 10.7319 77.5391 11.4733 78.5587 11.4733ZM43.3779 13.8365C42.3577 14.1617 41.4309 14.3002 40.3649 14.3002C37.1201 14.3002 35.4513 12.5856 35.4513 9.29442C35.4513 5.4937 37.5838 2.66621 40.504 2.66621C42.9142 2.66621 44.4433 4.24225 44.4433 6.69878C44.4433 7.53344 44.3506 8.32174 44.0723 9.4799H38.3257C38.2793 9.61956 38.2793 9.7123 38.2793 9.80504C38.2793 11.1029 39.1604 11.7515 40.8286 11.7515C41.8946 11.7515 42.8214 11.566 43.8416 11.0559L43.3779 13.8365ZM41.7555 7.20831V6.65241C41.7555 5.72555 41.2454 5.21548 40.3649 5.21548C39.438 5.21548 38.7889 5.91104 38.5106 7.20831H41.7555ZM12.2297 14.0689H9.35579L11.0246 3.5467L7.27022 14.0689H5.27685L5.045 3.63944L3.28402 14.0689H0.595642L2.86669 0.395166H7.03837L7.17748 8.87764L9.95806 0.395166H14.5007L12.2297 14.0689ZM19.4143 9.10894C19.1361 9.10894 18.997 9.06312 18.7651 9.06312C17.1427 9.06312 16.3086 9.66538 16.3086 10.7777C16.3086 11.4733 16.6796 11.8901 17.3282 11.8901C18.5333 11.8901 19.3679 10.7777 19.4143 9.10894ZM21.5462 14.0689H19.1355L19.1819 12.9097C18.44 13.8365 17.4668 14.2544 16.1226 14.2544C14.5465 14.2544 13.4806 13.0493 13.4806 11.2414C13.4806 8.50722 15.3343 6.93118 18.5791 6.93118C18.9037 6.93118 19.321 6.97755 19.7842 7.02337C19.8769 6.65296 19.8769 6.51385 19.8769 6.32837C19.8769 5.58699 19.3668 5.30877 18.0227 5.30877C17.1885 5.30877 16.2611 5.40151 15.6125 5.58699L15.1952 5.7261L14.9169 5.77247L15.3343 3.26957C16.7712 2.85224 17.7444 2.71313 18.8109 2.71313C21.3138 2.71313 22.658 3.82547 22.658 5.95741C22.658 6.51385 22.6117 6.93118 22.4262 8.18263L21.777 12.123L21.6843 12.8175L21.6379 13.3739L21.5915 13.7918L21.5462 14.0689ZM65.3028 9.10894C64.9777 9.10894 64.8391 9.06312 64.6542 9.06312C62.9854 9.06312 62.1502 9.66538 62.1502 10.7777C62.1502 11.4733 62.568 11.8901 63.2167 11.8901C64.3759 11.8901 65.2559 10.7777 65.3028 9.10894ZM67.4347 14.0689H65.0246L65.0704 12.9097C64.329 13.8365 63.3558 14.2544 62.0116 14.2544C60.4356 14.2544 59.369 13.0493 59.369 11.2414C59.369 8.50722 61.2228 6.93118 64.4676 6.93118C64.7927 6.93118 65.2101 6.97755 65.6268 7.02337C65.7196 6.65296 65.7665 6.51385 65.7665 6.32837C65.7665 5.58699 65.2559 5.30877 63.9128 5.30877C63.0776 5.30877 62.1049 5.40151 61.4557 5.58699L61.0847 5.7261L60.8065 5.77247L61.2233 3.26957C62.6608 2.85224 63.6335 2.71313 64.7 2.71313C67.2029 2.71313 68.5007 3.82547 68.5007 5.95741C68.5007 6.51385 68.5007 6.93118 68.2694 8.18263L67.6666 12.123L67.5738 12.8175L67.4811 13.3739L67.4353 13.7918L67.4347 14.0689ZM75.2217 2.85169H74.9434C73.9707 2.85169 73.4143 3.31539 72.5333 4.65904L72.8115 2.94389H70.1689L68.4074 14.0684H71.2813C72.3478 7.25468 72.626 6.09597 74.0166 6.09597H74.202C74.4803 4.75178 74.8507 3.77801 75.3144 2.89752L75.2217 2.85169Z" fill="white"/>
</svg>
